<svg width="534" height="227" viewBox="0 0 534 227" fill="none" xmlns="http://www.w3.org/2000/svg">
<g filter="url(#filter0_d_37_30)">
<g filter="url(#filter1_d_37_30)">
<mask id="path-1-inside-1_37_30" fill="white">
<path d="M98.1118 0C106.396 0 113.112 6.71573 113.112 15V45.6533H172.442V15C172.442 6.71573 179.158 0 187.442 0H222.683C230.967 0.00022145 237.683 6.71587 237.683 15V45.6533H296.473V15C296.473 6.71581 303.189 0.000131873 311.473 0H346.714C354.999 1.52928e-05 361.714 6.71574 361.714 15V45.6533H421.066V15C421.066 6.71573 427.782 0 436.066 0H471.306C479.59 0 486.306 6.71573 486.306 15V45.6533H523.1V201H10.1001V45.6533H47.8716V15C47.8716 6.71573 54.5873 0 62.8716 0H98.1118Z"/>
</mask>
<path d="M98.1118 0C106.396 0 113.112 6.71573 113.112 15V45.6533H172.442V15C172.442 6.71573 179.158 0 187.442 0H222.683C230.967 0.00022145 237.683 6.71587 237.683 15V45.6533H296.473V15C296.473 6.71581 303.189 0.000131873 311.473 0H346.714C354.999 1.52928e-05 361.714 6.71574 361.714 15V45.6533H421.066V15C421.066 6.71573 427.782 0 436.066 0H471.306C479.59 0 486.306 6.71573 486.306 15V45.6533H523.1V201H10.1001V45.6533H47.8716V15C47.8716 6.71573 54.5873 0 62.8716 0H98.1118Z" fill="#4553E8"/>
<path d="M113.112 45.6533H108.112V50.6533H113.112V45.6533ZM172.442 45.6533V50.6533H177.442V45.6533H172.442ZM172.442 15L167.442 15V15H172.442ZM222.683 0L222.683 -5H222.683V0ZM237.683 45.6533H232.683V50.6533H237.683V45.6533ZM296.473 45.6533V50.6533H301.473V45.6533H296.473ZM296.473 15L291.473 15V15H296.473ZM311.473 0V-5H311.473L311.473 0ZM346.714 0V-5V-5V0ZM361.714 45.6533H356.714V50.6533H361.714V45.6533ZM421.066 45.6533V50.6533H426.066V45.6533H421.066ZM421.066 15L416.066 15V15H421.066ZM486.306 45.6533H481.306V50.6533H486.306V45.6533ZM523.1 45.6533H528.1V40.6533H523.1V45.6533ZM523.1 201V206H528.1V201H523.1ZM10.1001 201H5.1001V206H10.1001V201ZM10.1001 45.6533V40.6533H5.1001V45.6533H10.1001ZM47.8716 45.6533V50.6533H52.8716V45.6533H47.8716ZM47.8716 15L42.8716 15V15H47.8716ZM98.1118 0V5C103.635 5 108.112 9.47715 108.112 15H113.112H118.112C118.112 3.95431 109.158 -5 98.1118 -5V0ZM113.112 15H108.112V45.6533H113.112H118.112V15H113.112ZM113.112 45.6533V50.6533H172.442V45.6533V40.6533H113.112V45.6533ZM172.442 45.6533H177.442V15H172.442H167.442V45.6533H172.442ZM172.442 15L177.442 15C177.442 9.47715 181.919 5 187.442 5V0V-5C176.396 -5 167.442 3.95431 167.442 15L172.442 15ZM187.442 0V5H222.683V0V-5H187.442V0ZM222.683 0L222.683 5C228.206 5.00015 232.683 9.47742 232.683 15H237.683H242.683C242.683 3.95431 233.729 -4.9997 222.683 -5L222.683 0ZM237.683 15H232.683V45.6533H237.683H242.683V15H237.683ZM237.683 45.6533V50.6533H296.473V45.6533V40.6533H237.683V45.6533ZM296.473 45.6533H301.473V15H296.473H291.473V45.6533H296.473ZM296.473 15L301.473 15C301.473 9.47731 305.95 5.00009 311.473 5L311.473 0L311.473 -5C300.428 -4.99982 291.473 3.95431 291.473 15L296.473 15ZM311.473 0V5H346.714V0V-5H311.473V0ZM346.714 0V5C352.237 5.00001 356.714 9.47717 356.714 15H361.714H366.714C366.714 3.95431 357.76 -4.99998 346.714 -5V0ZM361.714 15H356.714V45.6533H361.714H366.714V15H361.714ZM361.714 45.6533V50.6533H421.066V45.6533V40.6533H361.714V45.6533ZM421.066 45.6533H426.066V15H421.066H416.066V45.6533H421.066ZM421.066 15L426.066 15C426.066 9.47715 430.543 5 436.066 5V0V-5C425.02 -5 416.066 3.95431 416.066 15L421.066 15ZM436.066 0V5H471.306V0V-5H436.066V0ZM471.306 0V5C476.829 5 481.306 9.47715 481.306 15H486.306H491.306C491.306 3.95431 482.352 -5 471.306 -5V0ZM486.306 15H481.306V45.6533H486.306H491.306V15H486.306ZM486.306 45.6533V50.6533H523.1V45.6533V40.6533H486.306V45.6533ZM523.1 45.6533H518.1V201H523.1H528.1V45.6533H523.1ZM523.1 201V196H10.1001V201V206H523.1V201ZM10.1001 201H15.1001V45.6533H10.1001H5.1001V201H10.1001ZM10.1001 45.6533V50.6533H47.8716V45.6533V40.6533H10.1001V45.6533ZM47.8716 45.6533H52.8716V15H47.8716H42.8716V45.6533H47.8716ZM47.8716 15L52.8716 15C52.8716 9.47715 57.3487 5 62.8716 5V0V-5C51.8259 -5 42.8716 3.95431 42.8716 15L47.8716 15ZM62.8716 0V5H98.1118V0V-5H62.8716V0Z" fill="#3C1EC3" mask="url(#path-1-inside-1_37_30)"/>
</g>
</g>
<defs>
<filter id="filter0_d_37_30" x="6.1001" y="0" width="521" height="209" filterUnits="userSpaceOnUse" color-interpolation-filters="sRGB">
<feFlood flood-opacity="0" result="BackgroundImageFix"/>
<feColorMatrix in="SourceAlpha" type="matrix" values="0 0 0 0 0 0 0 0 0 0 0 0 0 0 0 0 0 0 127 0" result="hardAlpha"/>
<feOffset dy="4"/>
<feGaussianBlur stdDeviation="2"/>
<feComposite in2="hardAlpha" operator="out"/>
<feColorMatrix type="matrix" values="0 0 0 0 0 0 0 0 0 0 0 0 0 0 0 0 0 0 0.25 0"/>
<feBlend mode="normal" in2="BackgroundImageFix" result="effect1_dropShadow_37_30"/>
<feBlend mode="normal" in="SourceGraphic" in2="effect1_dropShadow_37_30" result="shape"/>
</filter>
<filter id="filter1_d_37_30" x="9.72748e-05" y="0" width="533.2" height="226.1" filterUnits="userSpaceOnUse" color-interpolation-filters="sRGB">
<feFlood flood-opacity="0" result="BackgroundImageFix"/>
<feColorMatrix in="SourceAlpha" type="matrix" values="0 0 0 0 0 0 0 0 0 0 0 0 0 0 0 0 0 0 127 0" result="hardAlpha"/>
<feOffset dy="15"/>
<feGaussianBlur stdDeviation="5.05"/>
<feComposite in2="hardAlpha" operator="out"/>
<feColorMatrix type="matrix" values="0 0 0 0 0 0 0 0 0 0 0 0 0 0 0 0 0 0 0.25 0"/>
<feBlend mode="normal" in2="BackgroundImageFix" result="effect1_dropShadow_37_30"/>
<feBlend mode="normal" in="SourceGraphic" in2="effect1_dropShadow_37_30" result="shape"/>
</filter>
</defs>
</svg>
