<svg width="534" height="227" viewBox="0 0 534 227" fill="none" xmlns="http://www.w3.org/2000/svg">
<g filter="url(#filter0_d_33_12)">
<g filter="url(#filter1_d_33_12)">
<mask id="path-1-inside-1_33_12" fill="white">
<path d="M98.1118 0C106.396 0 113.112 6.71573 113.112 15V45.6533H172.442V15C172.442 6.71573 179.158 0 187.442 0H222.683C230.967 0.00022145 237.683 6.71587 237.683 15V45.6533H296.473V15C296.473 6.71581 303.189 0.000131873 311.473 0H346.714C354.999 1.52928e-05 361.714 6.71574 361.714 15V45.6533H421.066V15C421.066 6.71573 427.782 0 436.066 0H471.306C479.59 0 486.306 6.71573 486.306 15V45.6533H523.1V201H10.1001V45.6533H47.8716V15C47.8716 6.71573 54.5873 0 62.8716 0H98.1118Z"/>
</mask>
<path d="M98.1118 0C106.396 0 113.112 6.71573 113.112 15V45.6533H172.442V15C172.442 6.71573 179.158 0 187.442 0H222.683C230.967 0.00022145 237.683 6.71587 237.683 15V45.6533H296.473V15C296.473 6.71581 303.189 0.000131873 311.473 0H346.714C354.999 1.52928e-05 361.714 6.71574 361.714 15V45.6533H421.066V15C421.066 6.71573 427.782 0 436.066 0H471.306C479.59 0 486.306 6.71573 486.306 15V45.6533H523.1V201H10.1001V45.6533H47.8716V15C47.8716 6.71573 54.5873 0 62.8716 0H98.1118Z" fill="#4553E8"/>
<path d="M113.112 45.6533H108.112V50.6533H113.112V45.6533ZM172.442 45.6533V50.6533H177.442V45.6533H172.442ZM172.442 15L167.442 15V15H172.442ZM222.683 0L222.683 -5H222.683V0ZM237.683 45.6533H232.683V50.6533H237.683V45.6533ZM296.473 45.6533V50.6533H301.473V45.6533H296.473ZM296.473 15L291.473 15V15H296.473ZM311.473 0V-5H311.473L311.473 0ZM346.714 0V-5V-5V0ZM361.714 45.6533H356.714V50.6533H361.714V45.6533ZM421.066 45.6533V50.6533H426.066V45.6533H421.066ZM421.066 15L416.066 15V15H421.066ZM486.306 45.6533H481.306V50.6533H486.306V45.6533ZM523.1 45.6533H528.1V40.6533H523.1V45.6533ZM523.1 201V206H528.1V201H523.1ZM10.1001 201H5.1001V206H10.1001V201ZM10.1001 45.6533V40.6533H5.1001V45.6533H10.1001ZM47.8716 45.6533V50.6533H52.8716V45.6533H47.8716ZM47.8716 15L42.8716 15V15H47.8716ZM98.1118 0V5C103.635 5 108.112 9.47715 108.112 15H113.112H118.112C118.112 3.95431 109.158 -5 98.1118 -5V0ZM113.112 15H108.112V45.6533H113.112H118.112V15H113.112ZM113.112 45.6533V50.6533H172.442V45.6533V40.6533H113.112V45.6533ZM172.442 45.6533H177.442V15H172.442H167.442V45.6533H172.442ZM172.442 15L177.442 15C177.442 9.47715 181.919 5 187.442 5V0V-5C176.396 -5 167.442 3.95431 167.442 15L172.442 15ZM187.442 0V5H222.683V0V-5H187.442V0ZM222.683 0L222.683 5C228.206 5.00015 232.683 9.47742 232.683 15H237.683H242.683C242.683 3.95431 233.729 -4.9997 222.683 -5L222.683 0ZM237.683 15H232.683V45.6533H237.683H242.683V15H237.683ZM237.683 45.6533V50.6533H296.473V45.6533V40.6533H237.683V45.6533ZM296.473 45.6533H301.473V15H296.473H291.473V45.6533H296.473ZM296.473 15L301.473 15C301.473 9.47731 305.95 5.00009 311.473 5L311.473 0L311.473 -5C300.428 -4.99982 291.473 3.95431 291.473 15L296.473 15ZM311.473 0V5H346.714V0V-5H311.473V0ZM346.714 0V5C352.237 5.00001 356.714 9.47717 356.714 15H361.714H366.714C366.714 3.95431 357.76 -4.99998 346.714 -5V0ZM361.714 15H356.714V45.6533H361.714H366.714V15H361.714ZM361.714 45.6533V50.6533H421.066V45.6533V40.6533H361.714V45.6533ZM421.066 45.6533H426.066V15H421.066H416.066V45.6533H421.066ZM421.066 15L426.066 15C426.066 9.47715 430.543 5 436.066 5V0V-5C425.02 -5 416.066 3.95431 416.066 15L421.066 15ZM436.066 0V5H471.306V0V-5H436.066V0ZM471.306 0V5C476.829 5 481.306 9.47715 481.306 15H486.306H491.306C491.306 3.95431 482.352 -5 471.306 -5V0ZM486.306 15H481.306V45.6533H486.306H491.306V15H486.306ZM486.306 45.6533V50.6533H523.1V45.6533V40.6533H486.306V45.6533ZM523.1 45.6533H518.1V201H523.1H528.1V45.6533H523.1ZM523.1 201V196H10.1001V201V206H523.1V201ZM10.1001 201H15.1001V45.6533H10.1001H5.1001V201H10.1001ZM10.1001 45.6533V50.6533H47.8716V45.6533V40.6533H10.1001V45.6533ZM47.8716 45.6533H52.8716V15H47.8716H42.8716V45.6533H47.8716ZM47.8716 15L52.8716 15C52.8716 9.47715 57.3487 5 62.8716 5V0V-5C51.8259 -5 42.8716 3.95431 42.8716 15L47.8716 15ZM62.8716 0V5H98.1118V0V-5H62.8716V0Z" fill="#3C1EC3" mask="url(#path-1-inside-1_33_12)"/>
</g>
<mask id="path-3-outside-2_33_12" maskUnits="userSpaceOnUse" x="87.1001" y="90.8054" width="360" height="79" fill="black">
<rect fill="white" x="87.1001" y="90.8054" width="360" height="79"/>
<path d="M91.1763 130.205C91.1763 124.253 91.9763 119.101 93.5763 114.749C95.1763 110.397 97.3203 106.813 100.008 103.997C102.76 101.117 105.864 99.0054 109.32 97.6614C112.776 96.2534 116.36 95.5494 120.072 95.5494C123.656 95.5494 126.6 95.9014 128.904 96.6054C131.272 97.3094 132.968 98.1094 133.992 99.0054V113.501H132.072C131.24 112.605 130.024 111.741 128.424 110.909C126.888 110.013 125 109.565 122.76 109.565C119.624 109.565 116.872 110.365 114.504 111.965C112.136 113.501 110.28 115.805 108.936 118.877C107.592 121.949 106.92 125.725 106.92 130.205C106.92 134.685 107.592 138.461 108.936 141.533C110.28 144.605 112.136 146.941 114.504 148.541C116.872 150.077 119.624 150.845 122.76 150.845C125 150.845 126.888 150.429 128.424 149.597C130.024 148.701 131.24 147.805 132.072 146.909H133.992V161.405C132.968 162.237 131.272 163.037 128.904 163.805C126.6 164.509 123.656 164.861 120.072 164.861C116.36 164.861 112.776 164.189 109.32 162.845C105.864 161.437 102.76 159.325 100.008 156.509C97.3203 153.629 95.1763 150.013 93.5763 145.661C91.9763 141.309 91.1763 136.157 91.1763 130.205ZM181.713 96.6054H197.073V163.805H181.713V137.021H166.161V163.805H150.801V96.6054H166.161V123.389H181.713V96.6054ZM213.033 130.205C213.033 122.077 214.345 115.453 216.969 110.333C219.593 105.213 223.017 101.469 227.241 99.1014C231.529 96.6694 236.169 95.4534 241.161 95.4534C246.153 95.4534 250.761 96.6694 254.985 99.1014C259.273 101.469 262.729 105.213 265.353 110.333C267.977 115.453 269.289 122.077 269.289 130.205C269.289 138.333 267.977 144.957 265.353 150.077C262.729 155.197 259.273 158.973 254.985 161.405C250.761 163.773 246.153 164.957 241.161 164.957C236.169 164.957 231.529 163.773 227.241 161.405C223.017 158.973 219.593 155.197 216.969 150.077C214.345 144.957 213.033 138.333 213.033 130.205ZM228.777 130.205C228.777 134.685 229.321 138.429 230.409 141.437C231.497 144.445 232.969 146.717 234.825 148.253C236.745 149.789 238.857 150.557 241.161 150.557C243.465 150.557 245.577 149.789 247.497 148.253C249.417 146.717 250.921 144.445 252.009 141.437C253.161 138.429 253.737 134.685 253.737 130.205C253.737 125.661 253.161 121.885 252.009 118.877C250.857 115.869 249.321 113.629 247.401 112.157C245.545 110.621 243.465 109.853 241.161 109.853C238.857 109.853 236.745 110.621 234.825 112.157C232.969 113.693 231.497 115.965 230.409 118.973C229.321 121.981 228.777 125.725 228.777 130.205ZM282.726 130.205C282.726 122.077 284.038 115.453 286.662 110.333C289.286 105.213 292.71 101.469 296.934 99.1014C301.222 96.6694 305.862 95.4534 310.854 95.4534C315.846 95.4534 320.454 96.6694 324.678 99.1014C328.966 101.469 332.422 105.213 335.046 110.333C337.67 115.453 338.982 122.077 338.982 130.205C338.982 138.333 337.67 144.957 335.046 150.077C332.422 155.197 328.966 158.973 324.678 161.405C320.454 163.773 315.846 164.957 310.854 164.957C305.862 164.957 301.222 163.773 296.934 161.405C292.71 158.973 289.286 155.197 286.662 150.077C284.038 144.957 282.726 138.333 282.726 130.205ZM298.47 130.205C298.47 134.685 299.014 138.429 300.102 141.437C301.19 144.445 302.662 146.717 304.518 148.253C306.438 149.789 308.55 150.557 310.854 150.557C313.158 150.557 315.27 149.789 317.19 148.253C319.11 146.717 320.614 144.445 321.702 141.437C322.854 138.429 323.43 134.685 323.43 130.205C323.43 125.661 322.854 121.885 321.702 118.877C320.55 115.869 319.014 113.629 317.094 112.157C315.238 110.621 313.158 109.853 310.854 109.853C308.55 109.853 306.438 110.621 304.518 112.157C302.662 113.693 301.19 115.965 300.102 118.973C299.014 121.981 298.47 125.725 298.47 130.205ZM393.231 145.373C393.231 149.533 392.367 153.085 390.639 156.029C388.911 158.909 386.511 161.117 383.439 162.653C380.431 164.189 376.975 164.957 373.071 164.957C369.999 164.957 367.119 164.573 364.431 163.805C361.807 163.101 359.535 162.237 357.615 161.213C355.695 160.189 354.287 159.325 353.391 158.621V143.741H355.311C357.359 145.661 359.855 147.357 362.799 148.829C365.743 150.237 368.495 150.941 371.055 150.941C372.335 150.941 373.455 150.749 374.415 150.365C375.439 149.917 376.239 149.309 376.815 148.541C377.391 147.773 377.679 146.877 377.679 145.853C377.679 144.189 377.135 142.845 376.047 141.821C375.023 140.797 373.391 139.645 371.151 138.365L364.431 134.525C362.447 133.373 360.495 131.997 358.575 130.397C356.655 128.797 355.055 126.781 353.775 124.349C352.559 121.917 351.951 118.909 351.951 115.325C351.951 111.037 352.847 107.421 354.639 104.477C356.431 101.533 358.799 99.3254 361.743 97.8534C364.751 96.3174 368.079 95.5494 371.727 95.5494C374.479 95.5494 377.007 95.8374 379.311 96.4134C381.615 96.9254 383.695 97.6614 385.551 98.6214C387.471 99.5174 389.071 100.605 390.351 101.885V116.765H388.431C386.383 114.589 383.983 112.861 381.231 111.581C378.543 110.237 375.887 109.565 373.263 109.565C371.663 109.565 370.287 109.981 369.135 110.813C368.047 111.581 367.503 112.733 367.503 114.269C367.503 115.869 368.239 117.277 369.711 118.493C371.183 119.709 373.199 121.085 375.759 122.621L382.671 126.845C384.847 128.189 386.703 129.725 388.239 131.453C389.839 133.117 391.055 135.101 391.887 137.405C392.783 139.645 393.231 142.301 393.231 145.373ZM442.578 96.6054V110.429H422.994V124.637C424.914 123.933 426.898 123.389 428.946 123.005C430.994 122.557 433.01 122.269 434.994 122.141C436.978 122.013 438.834 122.045 440.562 122.237V135.581L439.602 136.157C438.258 135.709 436.69 135.453 434.898 135.389C433.17 135.325 431.282 135.421 429.234 135.677C427.186 135.933 425.106 136.413 422.994 137.117V149.981H442.578V163.805H407.826V96.6054H442.578Z"/>
</mask>
<g filter="url(#filter2_i_33_12)">
<path d="M91.1763 130.205C91.1763 124.253 91.9763 119.101 93.5763 114.749C95.1763 110.397 97.3203 106.813 100.008 103.997C102.76 101.117 105.864 99.0054 109.32 97.6614C112.776 96.2534 116.36 95.5494 120.072 95.5494C123.656 95.5494 126.6 95.9014 128.904 96.6054C131.272 97.3094 132.968 98.1094 133.992 99.0054V113.501H132.072C131.24 112.605 130.024 111.741 128.424 110.909C126.888 110.013 125 109.565 122.76 109.565C119.624 109.565 116.872 110.365 114.504 111.965C112.136 113.501 110.28 115.805 108.936 118.877C107.592 121.949 106.92 125.725 106.92 130.205C106.92 134.685 107.592 138.461 108.936 141.533C110.28 144.605 112.136 146.941 114.504 148.541C116.872 150.077 119.624 150.845 122.76 150.845C125 150.845 126.888 150.429 128.424 149.597C130.024 148.701 131.24 147.805 132.072 146.909H133.992V161.405C132.968 162.237 131.272 163.037 128.904 163.805C126.6 164.509 123.656 164.861 120.072 164.861C116.36 164.861 112.776 164.189 109.32 162.845C105.864 161.437 102.76 159.325 100.008 156.509C97.3203 153.629 95.1763 150.013 93.5763 145.661C91.9763 141.309 91.1763 136.157 91.1763 130.205ZM181.713 96.6054H197.073V163.805H181.713V137.021H166.161V163.805H150.801V96.6054H166.161V123.389H181.713V96.6054ZM213.033 130.205C213.033 122.077 214.345 115.453 216.969 110.333C219.593 105.213 223.017 101.469 227.241 99.1014C231.529 96.6694 236.169 95.4534 241.161 95.4534C246.153 95.4534 250.761 96.6694 254.985 99.1014C259.273 101.469 262.729 105.213 265.353 110.333C267.977 115.453 269.289 122.077 269.289 130.205C269.289 138.333 267.977 144.957 265.353 150.077C262.729 155.197 259.273 158.973 254.985 161.405C250.761 163.773 246.153 164.957 241.161 164.957C236.169 164.957 231.529 163.773 227.241 161.405C223.017 158.973 219.593 155.197 216.969 150.077C214.345 144.957 213.033 138.333 213.033 130.205ZM228.777 130.205C228.777 134.685 229.321 138.429 230.409 141.437C231.497 144.445 232.969 146.717 234.825 148.253C236.745 149.789 238.857 150.557 241.161 150.557C243.465 150.557 245.577 149.789 247.497 148.253C249.417 146.717 250.921 144.445 252.009 141.437C253.161 138.429 253.737 134.685 253.737 130.205C253.737 125.661 253.161 121.885 252.009 118.877C250.857 115.869 249.321 113.629 247.401 112.157C245.545 110.621 243.465 109.853 241.161 109.853C238.857 109.853 236.745 110.621 234.825 112.157C232.969 113.693 231.497 115.965 230.409 118.973C229.321 121.981 228.777 125.725 228.777 130.205ZM282.726 130.205C282.726 122.077 284.038 115.453 286.662 110.333C289.286 105.213 292.71 101.469 296.934 99.1014C301.222 96.6694 305.862 95.4534 310.854 95.4534C315.846 95.4534 320.454 96.6694 324.678 99.1014C328.966 101.469 332.422 105.213 335.046 110.333C337.67 115.453 338.982 122.077 338.982 130.205C338.982 138.333 337.67 144.957 335.046 150.077C332.422 155.197 328.966 158.973 324.678 161.405C320.454 163.773 315.846 164.957 310.854 164.957C305.862 164.957 301.222 163.773 296.934 161.405C292.71 158.973 289.286 155.197 286.662 150.077C284.038 144.957 282.726 138.333 282.726 130.205ZM298.47 130.205C298.47 134.685 299.014 138.429 300.102 141.437C301.19 144.445 302.662 146.717 304.518 148.253C306.438 149.789 308.55 150.557 310.854 150.557C313.158 150.557 315.27 149.789 317.19 148.253C319.11 146.717 320.614 144.445 321.702 141.437C322.854 138.429 323.43 134.685 323.43 130.205C323.43 125.661 322.854 121.885 321.702 118.877C320.55 115.869 319.014 113.629 317.094 112.157C315.238 110.621 313.158 109.853 310.854 109.853C308.55 109.853 306.438 110.621 304.518 112.157C302.662 113.693 301.19 115.965 300.102 118.973C299.014 121.981 298.47 125.725 298.47 130.205ZM393.231 145.373C393.231 149.533 392.367 153.085 390.639 156.029C388.911 158.909 386.511 161.117 383.439 162.653C380.431 164.189 376.975 164.957 373.071 164.957C369.999 164.957 367.119 164.573 364.431 163.805C361.807 163.101 359.535 162.237 357.615 161.213C355.695 160.189 354.287 159.325 353.391 158.621V143.741H355.311C357.359 145.661 359.855 147.357 362.799 148.829C365.743 150.237 368.495 150.941 371.055 150.941C372.335 150.941 373.455 150.749 374.415 150.365C375.439 149.917 376.239 149.309 376.815 148.541C377.391 147.773 377.679 146.877 377.679 145.853C377.679 144.189 377.135 142.845 376.047 141.821C375.023 140.797 373.391 139.645 371.151 138.365L364.431 134.525C362.447 133.373 360.495 131.997 358.575 130.397C356.655 128.797 355.055 126.781 353.775 124.349C352.559 121.917 351.951 118.909 351.951 115.325C351.951 111.037 352.847 107.421 354.639 104.477C356.431 101.533 358.799 99.3254 361.743 97.8534C364.751 96.3174 368.079 95.5494 371.727 95.5494C374.479 95.5494 377.007 95.8374 379.311 96.4134C381.615 96.9254 383.695 97.6614 385.551 98.6214C387.471 99.5174 389.071 100.605 390.351 101.885V116.765H388.431C386.383 114.589 383.983 112.861 381.231 111.581C378.543 110.237 375.887 109.565 373.263 109.565C371.663 109.565 370.287 109.981 369.135 110.813C368.047 111.581 367.503 112.733 367.503 114.269C367.503 115.869 368.239 117.277 369.711 118.493C371.183 119.709 373.199 121.085 375.759 122.621L382.671 126.845C384.847 128.189 386.703 129.725 388.239 131.453C389.839 133.117 391.055 135.101 391.887 137.405C392.783 139.645 393.231 142.301 393.231 145.373ZM442.578 96.6054V110.429H422.994V124.637C424.914 123.933 426.898 123.389 428.946 123.005C430.994 122.557 433.01 122.269 434.994 122.141C436.978 122.013 438.834 122.045 440.562 122.237V135.581L439.602 136.157C438.258 135.709 436.69 135.453 434.898 135.389C433.17 135.325 431.282 135.421 429.234 135.677C427.186 135.933 425.106 136.413 422.994 137.117V149.981H442.578V163.805H407.826V96.6054H442.578Z" fill="white"/>
</g>
<path d="M93.5763 114.749L97.3307 116.13V116.13L93.5763 114.749ZM100.008 103.997L97.1164 101.234L97.1149 101.236L100.008 103.997ZM109.32 97.6614L110.77 101.389L110.8 101.378L110.83 101.366L109.32 97.6614ZM128.904 96.6054L127.735 100.431L127.75 100.435L127.764 100.44L128.904 96.6054ZM133.992 99.0054H137.992V97.1904L136.626 95.9951L133.992 99.0054ZM133.992 113.501V117.501H137.992V113.501H133.992ZM132.072 113.501L129.141 116.223L130.328 117.501H132.072V113.501ZM128.424 110.909L126.409 114.365L126.493 114.413L126.579 114.458L128.424 110.909ZM114.504 111.965L116.681 115.321L116.713 115.301L116.744 115.28L114.504 111.965ZM114.504 148.541L112.265 151.856L112.296 151.877L112.328 151.897L114.504 148.541ZM128.424 149.597L130.329 153.115L130.354 153.101L130.379 153.087L128.424 149.597ZM132.072 146.909V142.909H130.328L129.141 144.188L132.072 146.909ZM133.992 146.909H137.992V142.909H133.992V146.909ZM133.992 161.405L136.515 164.51L137.992 163.309V161.405H133.992ZM128.904 163.805L130.073 167.631L130.106 167.621L130.138 167.61L128.904 163.805ZM109.32 162.845L107.811 166.55L107.841 166.562L107.871 166.573L109.32 162.845ZM100.008 156.509L97.0841 159.239L97.1155 159.272L97.1476 159.305L100.008 156.509ZM93.5763 145.661L97.3307 144.281V144.281L93.5763 145.661ZM91.1763 130.205H95.1763C95.1763 124.597 95.9319 119.934 97.3307 116.13L93.5763 114.749L89.822 113.369C88.0208 118.269 87.1763 123.91 87.1763 130.205H91.1763ZM93.5763 114.749L97.3307 116.13C98.777 112.196 100.658 109.11 102.902 106.759L100.008 103.997L97.1149 101.236C93.9831 104.516 91.5757 108.599 89.822 113.369L93.5763 114.749ZM100.008 103.997L102.9 106.761C105.278 104.272 107.899 102.506 110.77 101.389L109.32 97.6614L107.871 93.9334C103.829 95.505 100.242 97.9628 97.1164 101.234L100.008 103.997ZM109.32 97.6614L110.83 101.366C113.809 100.152 116.881 99.5494 120.072 99.5494V95.5494V91.5494C115.84 91.5494 111.744 92.3549 107.811 93.9571L109.32 97.6614ZM120.072 95.5494V99.5494C123.434 99.5494 125.946 99.8842 127.735 100.431L128.904 96.6054L130.073 92.78C127.254 91.9187 123.879 91.5494 120.072 91.5494V95.5494ZM128.904 96.6054L127.764 100.44C129.959 101.092 130.989 101.693 131.358 102.016L133.992 99.0054L136.626 95.9951C134.948 94.5262 132.586 93.5269 130.044 92.7713L128.904 96.6054ZM133.992 99.0054H129.992V113.501H133.992H137.992V99.0054H133.992ZM133.992 113.501V109.501H132.072V113.501V117.501H133.992V113.501ZM132.072 113.501L135.004 110.78C133.749 109.429 132.102 108.313 130.27 107.361L128.424 110.909L126.579 114.458C127.947 115.17 128.732 115.782 129.141 116.223L132.072 113.501ZM128.424 110.909L130.44 107.454C128.152 106.12 125.527 105.565 122.76 105.565V109.565V113.565C124.474 113.565 125.624 113.907 126.409 114.365L128.424 110.909ZM122.76 109.565V105.565C118.907 105.565 115.358 106.561 112.265 108.651L114.504 111.965L116.744 115.28C118.386 114.17 120.341 113.565 122.76 113.565V109.565ZM114.504 111.965L112.328 108.61C109.188 110.646 106.87 113.622 105.272 117.274L108.936 118.877L112.601 120.481C113.691 117.989 115.085 116.357 116.681 115.321L114.504 111.965ZM108.936 118.877L105.272 117.274C103.646 120.991 102.92 125.349 102.92 130.205H106.92H110.92C110.92 126.102 111.539 122.908 112.601 120.481L108.936 118.877ZM106.92 130.205H102.92C102.92 135.062 103.646 139.42 105.272 143.137L108.936 141.533L112.601 139.93C111.539 137.503 110.92 134.309 110.92 130.205H106.92ZM108.936 141.533L105.272 143.137C106.866 146.78 109.167 149.763 112.265 151.856L114.504 148.541L116.744 145.227C115.105 144.12 113.695 142.431 112.601 139.93L108.936 141.533ZM114.504 148.541L112.328 151.897C115.414 153.9 118.941 154.845 122.76 154.845V150.845V146.845C120.308 146.845 118.33 146.255 116.681 145.186L114.504 148.541ZM122.76 150.845V154.845C125.483 154.845 128.066 154.341 130.329 153.115L128.424 149.597L126.519 146.08C125.71 146.518 124.518 146.845 122.76 146.845V150.845ZM128.424 149.597L130.379 153.087C132.18 152.079 133.784 150.945 135.004 149.631L132.072 146.909L129.141 144.188C128.697 144.666 127.869 145.324 126.47 146.107L128.424 149.597ZM132.072 146.909V150.909H133.992V146.909V142.909H132.072V146.909ZM133.992 146.909H129.992V161.405H133.992H137.992V146.909H133.992ZM133.992 161.405L131.47 158.301C131.032 158.656 129.91 159.274 127.67 160.001L128.904 163.805L130.138 167.61C132.635 166.801 134.904 165.818 136.515 164.51L133.992 161.405ZM128.904 163.805L127.735 159.98C125.946 160.527 123.434 160.861 120.072 160.861V164.861V168.861C123.879 168.861 127.254 168.492 130.073 167.631L128.904 163.805ZM120.072 164.861V160.861C116.856 160.861 113.763 160.281 110.77 159.117L109.32 162.845L107.871 166.573C111.789 168.097 115.865 168.861 120.072 168.861V164.861ZM109.32 162.845L110.83 159.141C107.909 157.951 105.259 156.159 102.869 153.714L100.008 156.509L97.1476 159.305C100.262 162.492 103.819 164.924 107.811 166.55L109.32 162.845ZM100.008 156.509L102.933 153.78C100.667 151.353 98.7787 148.22 97.3307 144.281L93.5763 145.661L89.822 147.042C91.574 151.807 93.9738 155.906 97.0841 159.239L100.008 156.509ZM93.5763 145.661L97.3307 144.281C95.9319 140.477 95.1763 135.814 95.1763 130.205H91.1763H87.1763C87.1763 136.501 88.0208 142.142 89.822 147.042L93.5763 145.661ZM181.713 96.6054V92.6054H177.713V96.6054H181.713ZM197.073 96.6054H201.073V92.6054H197.073V96.6054ZM197.073 163.805V167.805H201.073V163.805H197.073ZM181.713 163.805H177.713V167.805H181.713V163.805ZM181.713 137.021H185.713V133.021H181.713V137.021ZM166.161 137.021V133.021H162.161V137.021H166.161ZM166.161 163.805V167.805H170.161V163.805H166.161ZM150.801 163.805H146.801V167.805H150.801V163.805ZM150.801 96.6054V92.6054H146.801V96.6054H150.801ZM166.161 96.6054H170.161V92.6054H166.161V96.6054ZM166.161 123.389H162.161V127.389H166.161V123.389ZM181.713 123.389V127.389H185.713V123.389H181.713ZM181.713 96.6054V100.605H197.073V96.6054V92.6054H181.713V96.6054ZM197.073 96.6054H193.073V163.805H197.073H201.073V96.6054H197.073ZM197.073 163.805V159.805H181.713V163.805V167.805H197.073V163.805ZM181.713 163.805H185.713V137.021H181.713H177.713V163.805H181.713ZM181.713 137.021V133.021H166.161V137.021V141.021H181.713V137.021ZM166.161 137.021H162.161V163.805H166.161H170.161V137.021H166.161ZM166.161 163.805V159.805H150.801V163.805V167.805H166.161V163.805ZM150.801 163.805H154.801V96.6054H150.801H146.801V163.805H150.801ZM150.801 96.6054V100.605H166.161V96.6054V92.6054H150.801V96.6054ZM166.161 96.6054H162.161V123.389H166.161H170.161V96.6054H166.161ZM166.161 123.389V127.389H181.713V123.389V119.389H166.161V123.389ZM181.713 123.389H185.713V96.6054H181.713H177.713V123.389H181.713ZM216.969 110.333L213.409 108.509V108.509L216.969 110.333ZM227.241 99.1014L229.197 102.591L229.205 102.586L229.214 102.581L227.241 99.1014ZM254.985 99.1014L252.989 102.568L253.02 102.586L253.051 102.603L254.985 99.1014ZM265.353 110.333L261.793 112.158V112.158L265.353 110.333ZM265.353 150.077L261.793 148.253V148.253L265.353 150.077ZM254.985 161.405L256.941 164.895L256.949 164.89L256.958 164.885L254.985 161.405ZM227.241 161.405L225.245 164.872L225.276 164.89L225.307 164.907L227.241 161.405ZM216.969 150.077L220.528 148.253V148.253L216.969 150.077ZM230.409 141.437L226.647 142.798V142.798L230.409 141.437ZM234.825 148.253L232.274 151.335L232.3 151.356L232.326 151.377L234.825 148.253ZM247.497 148.253L249.995 151.377V151.377L247.497 148.253ZM252.009 141.437L248.273 140.007L248.26 140.042L248.247 140.077L252.009 141.437ZM252.009 118.877L248.273 120.308V120.308L252.009 118.877ZM247.401 112.157L244.85 115.239L244.908 115.287L244.967 115.332L247.401 112.157ZM234.825 112.157L232.326 109.034L232.3 109.055L232.274 109.076L234.825 112.157ZM230.409 118.973L226.647 117.613V117.613L230.409 118.973ZM213.033 130.205H217.033C217.033 122.466 218.288 116.529 220.528 112.158L216.969 110.333L213.409 108.509C210.401 114.378 209.033 121.689 209.033 130.205H213.033ZM216.969 110.333L220.528 112.158C222.862 107.604 225.78 104.506 229.197 102.591L227.241 99.1014L225.285 95.6123C220.253 98.4329 216.323 102.823 213.409 108.509L216.969 110.333ZM227.241 99.1014L229.214 102.581C232.892 100.495 236.851 99.4534 241.161 99.4534V95.4534V91.4534C235.486 91.4534 230.165 92.8443 225.267 95.6221L227.241 99.1014ZM241.161 95.4534V99.4534C245.47 99.4534 249.387 100.494 252.989 102.568L254.985 99.1014L256.98 95.6349C252.134 92.8447 246.835 91.4534 241.161 91.4534V95.4534ZM254.985 99.1014L253.051 102.603C256.527 104.523 259.467 107.62 261.793 112.158L265.353 110.333L268.912 108.509C265.99 102.807 262.018 98.4161 256.918 95.5999L254.985 99.1014ZM265.353 110.333L261.793 112.158C264.033 116.529 265.289 122.466 265.289 130.205H269.289H273.289C273.289 121.689 271.92 114.378 268.912 108.509L265.353 110.333ZM269.289 130.205H265.289C265.289 137.945 264.033 143.882 261.793 148.253L265.353 150.077L268.912 151.902C271.92 146.033 273.289 138.722 273.289 130.205H269.289ZM265.353 150.077L261.793 148.253C259.464 152.797 256.513 155.94 253.011 157.926L254.985 161.405L256.958 164.885C262.032 162.007 265.993 157.598 268.912 151.902L265.353 150.077ZM254.985 161.405L253.029 157.916C249.421 159.939 245.49 160.957 241.161 160.957V164.957V168.957C246.816 168.957 252.1 167.608 256.941 164.895L254.985 161.405ZM241.161 164.957V160.957C236.831 160.957 232.859 159.938 229.174 157.904L227.241 161.405L225.307 164.907C230.199 167.608 235.506 168.957 241.161 168.957V164.957ZM227.241 161.405L229.236 157.939C225.794 155.957 222.865 152.812 220.528 148.253L216.969 150.077L213.409 151.902C216.32 157.583 220.239 161.99 225.245 164.872L227.241 161.405ZM216.969 150.077L220.528 148.253C218.288 143.882 217.033 137.945 217.033 130.205H213.033H209.033C209.033 138.722 210.401 146.033 213.409 151.902L216.969 150.077ZM228.777 130.205H224.777C224.777 134.978 225.352 139.217 226.647 142.798L230.409 141.437L234.17 140.077C233.289 137.642 232.777 134.393 232.777 130.205H228.777ZM230.409 141.437L226.647 142.798C227.901 146.264 229.716 149.218 232.274 151.335L234.825 148.253L237.375 145.172C236.221 144.217 235.092 142.627 234.17 140.077L230.409 141.437ZM234.825 148.253L232.326 151.377C234.904 153.439 237.885 154.557 241.161 154.557V150.557V146.557C239.828 146.557 238.585 146.139 237.323 145.13L234.825 148.253ZM241.161 150.557V154.557C244.436 154.557 247.417 153.439 249.995 151.377L247.497 148.253L244.998 145.13C243.736 146.139 242.493 146.557 241.161 146.557V150.557ZM247.497 148.253L249.995 151.377C252.639 149.262 254.505 146.294 255.77 142.798L252.009 141.437L248.247 140.077C247.336 142.596 246.194 144.173 244.998 145.13L247.497 148.253ZM252.009 141.437L255.744 142.868C257.125 139.263 257.737 134.997 257.737 130.205H253.737H249.737C249.737 134.374 249.196 137.596 248.273 140.007L252.009 141.437ZM253.737 130.205H257.737C257.737 125.358 257.127 121.057 255.744 117.447L252.009 118.877L248.273 120.308C249.194 122.713 249.737 125.965 249.737 130.205H253.737ZM252.009 118.877L255.744 117.447C254.413 113.971 252.505 111.031 249.834 108.983L247.401 112.157L244.967 115.332C246.136 116.228 247.3 117.768 248.273 120.308L252.009 118.877ZM247.401 112.157L249.951 109.076C247.413 106.976 244.441 105.853 241.161 105.853V109.853V113.853C242.488 113.853 243.676 114.267 244.85 115.239L247.401 112.157ZM241.161 109.853V105.853C237.885 105.853 234.904 106.971 232.326 109.034L234.825 112.157L237.323 115.281C238.585 114.271 239.828 113.853 241.161 113.853V109.853ZM234.825 112.157L232.274 109.076C229.716 111.193 227.901 114.147 226.647 117.613L230.409 118.973L234.17 120.334C235.092 117.784 236.221 116.194 237.375 115.239L234.825 112.157ZM230.409 118.973L226.647 117.613C225.352 121.194 224.777 125.433 224.777 130.205H228.777H232.777C232.777 126.018 233.289 122.769 234.17 120.334L230.409 118.973ZM286.662 110.333L283.103 108.509V108.509L286.662 110.333ZM296.934 99.1014L298.89 102.591L298.899 102.586L298.908 102.581L296.934 99.1014ZM324.678 99.1014L322.682 102.568L322.713 102.586L322.745 102.603L324.678 99.1014ZM335.046 110.333L331.487 112.158V112.158L335.046 110.333ZM335.046 150.077L331.487 148.253V148.253L335.046 150.077ZM324.678 161.405L326.634 164.895L326.643 164.89L326.652 164.885L324.678 161.405ZM296.934 161.405L294.938 164.872L294.969 164.89L295.001 164.907L296.934 161.405ZM286.662 150.077L290.222 148.253V148.253L286.662 150.077ZM300.102 141.437L296.341 142.798V142.798L300.102 141.437ZM304.518 148.253L301.968 151.335L301.994 151.356L302.02 151.377L304.518 148.253ZM317.19 148.253L319.689 151.377V151.377L317.19 148.253ZM321.702 141.437L317.967 140.007L317.954 140.042L317.941 140.077L321.702 141.437ZM321.702 118.877L317.967 120.308V120.308L321.702 118.877ZM317.094 112.157L314.544 115.239L314.601 115.287L314.661 115.332L317.094 112.157ZM304.518 112.157L302.02 109.034L301.994 109.055L301.968 109.076L304.518 112.157ZM300.102 118.973L296.341 117.613V117.613L300.102 118.973ZM282.726 130.205H286.726C286.726 122.466 287.982 116.529 290.222 112.158L286.662 110.333L283.103 108.509C280.095 114.378 278.726 121.689 278.726 130.205H282.726ZM286.662 110.333L290.222 112.158C292.556 107.604 295.474 104.506 298.89 102.591L296.934 99.1014L294.978 95.6123C289.947 98.4329 286.017 102.823 283.103 108.509L286.662 110.333ZM296.934 99.1014L298.908 102.581C302.586 100.495 306.545 99.4534 310.854 99.4534V95.4534V91.4534C305.18 91.4534 299.859 92.8443 294.961 95.6221L296.934 99.1014ZM310.854 95.4534V99.4534C315.164 99.4534 319.081 100.494 322.682 102.568L324.678 99.1014L326.674 95.6349C321.828 92.8447 316.529 91.4534 310.854 91.4534V95.4534ZM324.678 99.1014L322.745 102.603C326.221 104.523 329.161 107.62 331.487 112.158L335.046 110.333L338.606 108.509C335.684 102.807 331.712 98.4161 326.612 95.5999L324.678 99.1014ZM335.046 110.333L331.487 112.158C333.727 116.529 334.982 122.466 334.982 130.205H338.982H342.982C342.982 121.689 341.614 114.378 338.606 108.509L335.046 110.333ZM338.982 130.205H334.982C334.982 137.945 333.727 143.882 331.487 148.253L335.046 150.077L338.606 151.902C341.614 146.033 342.982 138.722 342.982 130.205H338.982ZM335.046 150.077L331.487 148.253C329.158 152.797 326.207 155.94 322.705 157.926L324.678 161.405L326.652 164.885C331.726 162.007 335.687 157.598 338.606 151.902L335.046 150.077ZM324.678 161.405L322.722 157.916C319.115 159.939 315.183 160.957 310.854 160.957V164.957V168.957C316.509 168.957 321.794 167.608 326.634 164.895L324.678 161.405ZM310.854 164.957V160.957C306.525 160.957 302.552 159.938 298.868 157.904L296.934 161.405L295.001 164.907C299.892 167.608 305.2 168.957 310.854 168.957V164.957ZM296.934 161.405L298.93 157.939C295.488 155.957 292.559 152.812 290.222 148.253L286.662 150.077L283.103 151.902C286.014 157.583 289.933 161.99 294.938 164.872L296.934 161.405ZM286.662 150.077L290.222 148.253C287.982 143.882 286.726 137.945 286.726 130.205H282.726H278.726C278.726 138.722 280.095 146.033 283.103 151.902L286.662 150.077ZM298.47 130.205H294.47C294.47 134.978 295.046 139.217 296.341 142.798L300.102 141.437L303.864 140.077C302.983 137.642 302.47 134.393 302.47 130.205H298.47ZM300.102 141.437L296.341 142.798C297.595 146.264 299.41 149.218 301.968 151.335L304.518 148.253L307.069 145.172C305.915 144.217 304.786 142.627 303.864 140.077L300.102 141.437ZM304.518 148.253L302.02 151.377C304.598 153.439 307.579 154.557 310.854 154.557V150.557V146.557C309.522 146.557 308.279 146.139 307.017 145.13L304.518 148.253ZM310.854 150.557V154.557C314.13 154.557 317.111 153.439 319.689 151.377L317.19 148.253L314.692 145.13C313.43 146.139 312.187 146.557 310.854 146.557V150.557ZM317.19 148.253L319.689 151.377C322.333 149.262 324.199 146.294 325.464 142.798L321.702 141.437L317.941 140.077C317.03 142.596 315.888 144.173 314.692 145.13L317.19 148.253ZM321.702 141.437L325.438 142.868C326.819 139.263 327.43 134.997 327.43 130.205H323.43H319.43C319.43 134.374 318.89 137.596 317.967 140.007L321.702 141.437ZM323.43 130.205H327.43C327.43 125.358 326.821 121.057 325.438 117.447L321.702 118.877L317.967 120.308C318.888 122.713 319.43 125.965 319.43 130.205H323.43ZM321.702 118.877L325.438 117.447C324.107 113.971 322.199 111.031 319.528 108.983L317.094 112.157L314.661 115.332C315.83 116.228 316.994 117.768 317.967 120.308L321.702 118.877ZM317.094 112.157L319.645 109.076C317.107 106.976 314.134 105.853 310.854 105.853V109.853V113.853C312.182 113.853 313.37 114.267 314.544 115.239L317.094 112.157ZM310.854 109.853V105.853C307.579 105.853 304.598 106.971 302.02 109.034L304.518 112.157L307.017 115.281C308.279 114.271 309.522 113.853 310.854 113.853V109.853ZM304.518 112.157L301.968 109.076C299.41 111.193 297.595 114.147 296.341 117.613L300.102 118.973L303.864 120.334C304.786 117.784 305.915 116.194 307.069 115.239L304.518 112.157ZM300.102 118.973L296.341 117.613C295.046 121.194 294.47 125.433 294.47 130.205H298.47H302.47C302.47 126.018 302.983 122.769 303.864 120.334L300.102 118.973ZM390.639 156.029L394.069 158.087L394.079 158.071L394.089 158.054L390.639 156.029ZM383.439 162.653L381.65 159.076L381.635 159.083L381.62 159.091L383.439 162.653ZM364.431 163.805L365.53 159.959L365.499 159.95L365.468 159.942L364.431 163.805ZM357.615 161.213L355.733 164.743V164.743L357.615 161.213ZM353.391 158.621H349.391V160.566L350.92 161.767L353.391 158.621ZM353.391 143.741V139.741H349.391V143.741H353.391ZM355.311 143.741L358.047 140.823L356.893 139.741H355.311V143.741ZM362.799 148.829L361.01 152.407L361.042 152.423L361.074 152.438L362.799 148.829ZM374.415 150.365L375.901 154.079L375.96 154.056L376.019 154.03L374.415 150.365ZM376.815 148.541L373.615 146.141V146.141L376.815 148.541ZM376.047 141.821L373.219 144.65L373.262 144.693L373.306 144.734L376.047 141.821ZM371.151 138.365L373.136 134.892V134.892L371.151 138.365ZM364.431 134.525L362.423 137.985L362.435 137.992L362.447 137.998L364.431 134.525ZM358.575 130.397L356.015 133.47V133.47L358.575 130.397ZM353.775 124.349L350.198 126.138L350.216 126.176L350.236 126.212L353.775 124.349ZM354.639 104.477L351.223 102.398V102.398L354.639 104.477ZM361.743 97.8534L363.532 101.431L363.547 101.424L363.562 101.416L361.743 97.8534ZM379.311 96.4134L378.341 100.294L378.392 100.307L378.444 100.318L379.311 96.4134ZM385.551 98.6214L383.714 102.174L383.786 102.212L383.86 102.246L385.551 98.6214ZM390.351 101.885H394.351V100.229L393.18 99.057L390.351 101.885ZM390.351 116.765V120.765H394.351V116.765H390.351ZM388.431 116.765L385.519 119.507L386.703 120.765H388.431V116.765ZM381.231 111.581L379.443 115.159L379.493 115.184L379.544 115.208L381.231 111.581ZM369.135 110.813L371.442 114.081L371.46 114.069L371.477 114.056L369.135 110.813ZM369.711 118.493L372.259 115.41V115.41L369.711 118.493ZM375.759 122.621L377.845 119.208L377.831 119.2L377.817 119.191L375.759 122.621ZM382.671 126.845L384.773 123.442L384.765 123.437L384.757 123.432L382.671 126.845ZM388.239 131.453L385.25 134.111L385.302 134.169L385.356 134.226L388.239 131.453ZM391.887 137.405L388.125 138.764L388.148 138.828L388.173 138.891L391.887 137.405ZM393.231 145.373H389.231C389.231 148.977 388.486 151.796 387.19 154.005L390.639 156.029L394.089 158.054C396.249 154.375 397.231 150.09 397.231 145.373H393.231ZM390.639 156.029L387.209 153.971C385.882 156.184 384.058 157.872 381.65 159.076L383.439 162.653L385.228 166.231C388.964 164.363 391.941 161.635 394.069 158.087L390.639 156.029ZM383.439 162.653L381.62 159.091C379.257 160.298 376.442 160.957 373.071 160.957V164.957V168.957C377.509 168.957 381.605 168.081 385.258 166.216L383.439 162.653ZM373.071 164.957V160.957C370.335 160.957 367.827 160.616 365.53 159.959L364.431 163.805L363.332 167.652C366.411 168.531 369.664 168.957 373.071 168.957V164.957ZM364.431 163.805L365.468 159.942C363.068 159.298 361.093 158.535 359.498 157.684L357.615 161.213L355.733 164.743C357.978 165.94 360.546 166.905 363.395 167.669L364.431 163.805ZM357.615 161.213L359.498 157.684C357.634 156.69 356.476 155.958 355.863 155.476L353.391 158.621L350.92 161.767C352.099 162.693 353.756 163.689 355.733 164.743L357.615 161.213ZM353.391 158.621H357.391V143.741H353.391H349.391V158.621H353.391ZM353.391 143.741V147.741H355.311V143.741V139.741H353.391V143.741ZM355.311 143.741L352.576 146.66C354.949 148.885 357.779 150.791 361.01 152.407L362.799 148.829L364.588 145.252C361.932 143.924 359.769 142.438 358.047 140.823L355.311 143.741ZM362.799 148.829L361.074 152.438C364.413 154.035 367.757 154.941 371.055 154.941V150.941V146.941C369.233 146.941 367.074 146.44 364.525 145.221L362.799 148.829ZM371.055 150.941V154.941C372.727 154.941 374.371 154.691 375.901 154.079L374.415 150.365L372.93 146.652C372.54 146.807 371.944 146.941 371.055 146.941V150.941ZM374.415 150.365L376.019 154.03C377.57 153.351 378.962 152.347 380.015 150.941L376.815 148.541L373.615 146.141C373.517 146.272 373.308 146.484 372.812 146.701L374.415 150.365ZM376.815 148.541L380.015 150.941C381.146 149.433 381.679 147.681 381.679 145.853H377.679H373.679C373.679 146.073 373.636 146.113 373.615 146.141L376.815 148.541ZM377.679 145.853H381.679C381.679 143.225 380.776 140.779 378.789 138.909L376.047 141.821L373.306 144.734C373.495 144.912 373.679 145.154 373.679 145.853H377.679ZM376.047 141.821L378.876 138.993C377.477 137.595 375.484 136.234 373.136 134.892L371.151 138.365L369.167 141.838C371.298 143.056 372.569 144 373.219 144.65L376.047 141.821ZM371.151 138.365L373.136 134.892L366.416 131.052L364.431 134.525L362.447 137.998L369.167 141.838L371.151 138.365ZM364.431 134.525L366.44 131.066C364.667 130.037 362.898 128.793 361.136 127.325L358.575 130.397L356.015 133.47C358.092 135.202 360.228 136.71 362.423 137.985L364.431 134.525ZM358.575 130.397L361.136 127.325C359.657 126.092 358.375 124.501 357.315 122.486L353.775 124.349L350.236 126.212C351.735 129.062 353.654 131.503 356.015 133.47L358.575 130.397ZM353.775 124.349L357.353 122.561C356.489 120.832 355.951 118.478 355.951 115.325H351.951H347.951C347.951 119.341 348.63 123.003 350.198 126.138L353.775 124.349ZM351.951 115.325H355.951C355.951 111.593 356.729 108.738 358.056 106.557L354.639 104.477L351.223 102.398C348.966 106.105 347.951 110.482 347.951 115.325H351.951ZM354.639 104.477L358.056 106.557C359.476 104.224 361.293 102.551 363.532 101.431L361.743 97.8534L359.954 94.2757C356.305 96.1003 353.386 98.843 351.223 102.398L354.639 104.477ZM361.743 97.8534L363.562 101.416C365.963 100.19 368.66 99.5494 371.727 99.5494V95.5494V91.5494C367.499 91.5494 363.54 92.4447 359.924 94.291L361.743 97.8534ZM371.727 95.5494V99.5494C374.203 99.5494 376.4 99.8087 378.341 100.294L379.311 96.4134L380.281 92.5329C377.615 91.8662 374.756 91.5494 371.727 91.5494V95.5494ZM379.311 96.4134L378.444 100.318C380.453 100.765 382.201 101.392 383.714 102.174L385.551 98.6214L387.389 95.0686C385.19 93.9309 382.777 93.0861 380.179 92.5087L379.311 96.4134ZM385.551 98.6214L383.86 102.246C385.428 102.978 386.623 103.814 387.523 104.714L390.351 101.885L393.18 99.057C391.519 97.3964 389.515 96.0569 387.243 94.9967L385.551 98.6214ZM390.351 101.885H386.351V116.765H390.351H394.351V101.885H390.351ZM390.351 116.765V112.765H388.431V116.765V120.765H390.351V116.765ZM388.431 116.765L391.344 114.024C388.942 111.472 386.124 109.446 382.918 107.955L381.231 111.581L379.544 115.208C381.843 116.277 383.825 117.707 385.519 119.507L388.431 116.765ZM381.231 111.581L383.02 108.004C379.858 106.423 376.593 105.565 373.263 105.565V109.565V113.565C375.182 113.565 377.229 114.052 379.443 115.159L381.231 111.581ZM373.263 109.565V105.565C370.933 105.565 368.711 106.185 366.793 107.571L369.135 110.813L371.477 114.056C371.863 113.777 372.394 113.565 373.263 113.565V109.565ZM369.135 110.813L366.829 107.546C364.504 109.186 363.503 111.663 363.503 114.269H367.503H371.503C371.503 113.972 371.555 113.905 371.528 113.961C371.516 113.988 371.495 114.021 371.469 114.052C371.443 114.082 371.429 114.091 371.442 114.081L369.135 110.813ZM367.503 114.269H363.503C363.503 117.296 364.969 119.764 367.164 121.577L369.711 118.493L372.259 115.41C371.51 114.791 371.503 114.443 371.503 114.269H367.503ZM369.711 118.493L367.164 121.577C368.851 122.971 371.054 124.463 373.701 126.051L375.759 122.621L377.817 119.191C375.345 117.708 373.516 116.448 372.259 115.41L369.711 118.493ZM375.759 122.621L373.674 126.035L380.586 130.259L382.671 126.845L384.757 123.432L377.845 119.208L375.759 122.621ZM382.671 126.845L380.569 130.249C382.45 131.41 383.998 132.702 385.25 134.111L388.239 131.453L391.229 128.796C389.409 126.749 387.245 124.969 384.773 123.442L382.671 126.845ZM388.239 131.453L385.356 134.226C386.544 135.461 387.472 136.955 388.125 138.764L391.887 137.405L395.65 136.047C394.639 133.248 393.135 130.774 391.123 128.681L388.239 131.453ZM391.887 137.405L388.173 138.891C388.837 140.549 389.231 142.677 389.231 145.373H393.231H397.231C397.231 141.926 396.73 138.742 395.601 135.92L391.887 137.405ZM442.578 96.6054H446.578V92.6054H442.578V96.6054ZM442.578 110.429V114.429H446.578V110.429H442.578ZM422.994 110.429V106.429H418.994V110.429H422.994ZM422.994 124.637H418.994V130.365L424.371 128.393L422.994 124.637ZM428.946 123.005L429.684 126.937L429.742 126.926L429.801 126.913L428.946 123.005ZM434.994 122.141L434.737 118.15V118.15L434.994 122.141ZM440.562 122.237H444.562V118.657L441.004 118.262L440.562 122.237ZM440.562 135.581L442.62 139.011L444.562 137.846V135.581H440.562ZM439.602 136.157L438.337 139.952L440.083 140.534L441.66 139.587L439.602 136.157ZM434.898 135.389L434.75 139.387L434.756 139.387L434.898 135.389ZM429.234 135.677L428.738 131.708V131.708L429.234 135.677ZM422.994 137.117L421.729 133.323L418.994 134.234V137.117H422.994ZM422.994 149.981H418.994V153.981H422.994V149.981ZM442.578 149.981H446.578V145.981H442.578V149.981ZM442.578 163.805V167.805H446.578V163.805H442.578ZM407.826 163.805H403.826V167.805H407.826V163.805ZM407.826 96.6054V92.6054H403.826V96.6054H407.826ZM442.578 96.6054H438.578V110.429H442.578H446.578V96.6054H442.578ZM442.578 110.429V106.429H422.994V110.429V114.429H442.578V110.429ZM422.994 110.429H418.994V124.637H422.994H426.994V110.429H422.994ZM422.994 124.637L424.371 128.393C426.079 127.767 427.849 127.281 429.684 126.937L428.946 123.005L428.209 119.074C425.948 119.498 423.749 120.1 421.617 120.882L422.994 124.637ZM428.946 123.005L429.801 126.913C431.663 126.506 433.479 126.247 435.252 126.133L434.994 122.141L434.737 118.15C432.541 118.291 430.326 118.609 428.092 119.098L428.946 123.005ZM434.994 122.141L435.252 126.133C437.035 126.018 438.655 126.05 440.121 126.213L440.562 122.237L441.004 118.262C439.014 118.041 436.921 118.009 434.737 118.15L434.994 122.141ZM440.562 122.237H436.562V135.581H440.562H444.562V122.237H440.562ZM440.562 135.581L438.504 132.151L437.544 132.727L439.602 136.157L441.66 139.587L442.62 139.011L440.562 135.581ZM439.602 136.157L440.867 132.363C439.08 131.767 437.119 131.466 435.041 131.392L434.898 135.389L434.756 139.387C436.262 139.441 437.437 139.652 438.337 139.952L439.602 136.157ZM434.898 135.389L435.046 131.392C433.067 131.319 430.96 131.431 428.738 131.708L429.234 135.677L429.73 139.647C431.604 139.412 433.274 139.332 434.75 139.387L434.898 135.389ZM429.234 135.677L428.738 131.708C426.409 131.999 424.072 132.542 421.729 133.323L422.994 137.117L424.259 140.912C426.141 140.285 427.963 139.867 429.73 139.647L429.234 135.677ZM422.994 137.117H418.994V149.981H422.994H426.994V137.117H422.994ZM422.994 149.981V153.981H442.578V149.981V145.981H422.994V149.981ZM442.578 149.981H438.578V163.805H442.578H446.578V149.981H442.578ZM442.578 163.805V159.805H407.826V163.805V167.805H442.578V163.805ZM407.826 163.805H411.826V96.6054H407.826H403.826V163.805H407.826ZM407.826 96.6054V100.605H442.578V96.6054V92.6054H407.826V96.6054Z" fill="#3C1EC3" mask="url(#path-3-outside-2_33_12)"/>
</g>
<defs>
<filter id="filter0_d_33_12" x="6.1001" y="0" width="521" height="209" filterUnits="userSpaceOnUse" color-interpolation-filters="sRGB">
<feFlood flood-opacity="0" result="BackgroundImageFix"/>
<feColorMatrix in="SourceAlpha" type="matrix" values="0 0 0 0 0 0 0 0 0 0 0 0 0 0 0 0 0 0 127 0" result="hardAlpha"/>
<feOffset dy="4"/>
<feGaussianBlur stdDeviation="2"/>
<feComposite in2="hardAlpha" operator="out"/>
<feColorMatrix type="matrix" values="0 0 0 0 0 0 0 0 0 0 0 0 0 0 0 0 0 0 0.25 0"/>
<feBlend mode="normal" in2="BackgroundImageFix" result="effect1_dropShadow_33_12"/>
<feBlend mode="normal" in="SourceGraphic" in2="effect1_dropShadow_33_12" result="shape"/>
</filter>
<filter id="filter1_d_33_12" x="9.72748e-05" y="0" width="533.2" height="226.1" filterUnits="userSpaceOnUse" color-interpolation-filters="sRGB">
<feFlood flood-opacity="0" result="BackgroundImageFix"/>
<feColorMatrix in="SourceAlpha" type="matrix" values="0 0 0 0 0 0 0 0 0 0 0 0 0 0 0 0 0 0 127 0" result="hardAlpha"/>
<feOffset dy="15"/>
<feGaussianBlur stdDeviation="5.05"/>
<feComposite in2="hardAlpha" operator="out"/>
<feColorMatrix type="matrix" values="0 0 0 0 0 0 0 0 0 0 0 0 0 0 0 0 0 0 0.25 0"/>
<feBlend mode="normal" in2="BackgroundImageFix" result="effect1_dropShadow_33_12"/>
<feBlend mode="normal" in="SourceGraphic" in2="effect1_dropShadow_33_12" result="shape"/>
</filter>
<filter id="filter2_i_33_12" x="87.1763" y="84.4534" width="366.402" height="84.504" filterUnits="userSpaceOnUse" color-interpolation-filters="sRGB">
<feFlood flood-opacity="0" result="BackgroundImageFix"/>
<feBlend mode="normal" in="SourceGraphic" in2="BackgroundImageFix" result="shape"/>
<feColorMatrix in="SourceAlpha" type="matrix" values="0 0 0 0 0 0 0 0 0 0 0 0 0 0 0 0 0 0 127 0" result="hardAlpha"/>
<feOffset dx="10" dy="-8"/>
<feGaussianBlur stdDeviation="3.5"/>
<feComposite in2="hardAlpha" operator="arithmetic" k2="-1" k3="1"/>
<feColorMatrix type="matrix" values="0 0 0 0 0 0 0 0 0 0 0 0 0 0 0 0 0 0 0.15 0"/>
<feBlend mode="normal" in2="shape" result="effect1_innerShadow_33_12"/>
</filter>
</defs>
</svg>
