<svg width="324" height="249" viewBox="0 0 324 249" fill="none" xmlns="http://www.w3.org/2000/svg">
<g filter="url(#filter0_d_50_14)">
<mask id="path-1-inside-1_50_14" fill="white">
<path d="M138.536 50.6494H170.193L313.1 133.659V223H10.1001V50.6494H61.6548V0H138.536V50.6494Z"/>
</mask>
<path d="M138.536 50.6494H170.193L313.1 133.659V223H10.1001V50.6494H61.6548V0H138.536V50.6494Z" fill="white"/>
<path d="M138.536 50.6494H133.536V55.6494H138.536V50.6494ZM170.193 50.6494L172.704 46.3259L171.54 45.6494H170.193V50.6494ZM313.1 133.659H318.1V130.781L315.611 129.336L313.1 133.659ZM313.1 223V228H318.1V223H313.1ZM10.1001 223H5.1001V228H10.1001V223ZM10.1001 50.6494V45.6494H5.1001V50.6494H10.1001ZM61.6548 50.6494V55.6494H66.6548V50.6494H61.6548ZM61.6548 0V-5H56.6548V0H61.6548ZM138.536 0H143.536V-5H138.536V0ZM138.536 50.6494V55.6494H170.193V50.6494V45.6494H138.536V50.6494ZM170.193 50.6494L167.681 54.9729L310.589 137.983L313.1 133.659L315.611 129.336L172.704 46.3259L170.193 50.6494ZM313.1 133.659H308.1V223H313.1H318.1V133.659H313.1ZM313.1 223V218H10.1001V223V228H313.1V223ZM10.1001 223H15.1001V50.6494H10.1001H5.1001V223H10.1001ZM10.1001 50.6494V55.6494H61.6548V50.6494V45.6494H10.1001V50.6494ZM61.6548 50.6494H66.6548V0H61.6548H56.6548V50.6494H61.6548ZM61.6548 0V5H138.536V0V-5H61.6548V0ZM138.536 0H133.536V50.6494H138.536H143.536V0H138.536Z" fill="#939393" mask="url(#path-1-inside-1_50_14)"/>
</g>
<path d="M84.7801 130.8V138.864H73.4681V147.992C74.5881 147.581 75.7454 147.264 76.9401 147.04C78.1348 146.779 79.3108 146.611 80.4681 146.536C81.6254 146.461 82.7081 146.48 83.7161 146.592V154.376L83.1561 154.712C82.3721 154.451 81.4574 154.301 80.4121 154.264C79.4041 154.227 78.3028 154.283 77.1081 154.432C75.9134 154.581 74.7001 154.861 73.4681 155.272V170H64.6201V130.8H84.7801ZM94.0092 130.8H102.857V170H94.0092V130.8ZM131.25 130.8H139.874V170H130.69L122.346 148.216H121.786L122.178 170H113.554V130.8H122.738L131.082 153.032H131.642L131.25 130.8ZM150.545 130.8H159.393V170H150.545V130.8ZM192.77 159.248C192.77 161.675 192.266 163.747 191.258 165.464C190.25 167.144 188.85 168.432 187.058 169.328C185.304 170.224 183.288 170.672 181.01 170.672C179.218 170.672 177.538 170.448 175.97 170C174.44 169.589 173.114 169.085 171.994 168.488C170.874 167.891 170.053 167.387 169.53 166.976V158.296H170.65C171.845 159.416 173.301 160.405 175.018 161.264C176.736 162.085 178.341 162.496 179.834 162.496C180.581 162.496 181.234 162.384 181.794 162.16C182.392 161.899 182.858 161.544 183.194 161.096C183.53 160.648 183.698 160.125 183.698 159.528C183.698 158.557 183.381 157.773 182.746 157.176C182.149 156.579 181.197 155.907 179.89 155.16L175.97 152.92C174.813 152.248 173.674 151.445 172.554 150.512C171.434 149.579 170.501 148.403 169.754 146.984C169.045 145.565 168.69 143.811 168.69 141.72C168.69 139.219 169.213 137.109 170.258 135.392C171.304 133.675 172.685 132.387 174.402 131.528C176.157 130.632 178.098 130.184 180.226 130.184C181.832 130.184 183.306 130.352 184.65 130.688C185.994 130.987 187.208 131.416 188.29 131.976C189.41 132.499 190.344 133.133 191.09 133.88V142.56H189.97C188.776 141.291 187.376 140.283 185.77 139.536C184.202 138.752 182.653 138.36 181.122 138.36C180.189 138.36 179.386 138.603 178.714 139.088C178.08 139.536 177.762 140.208 177.762 141.104C177.762 142.037 178.192 142.859 179.05 143.568C179.909 144.277 181.085 145.08 182.578 145.976L186.61 148.44C187.88 149.224 188.962 150.12 189.858 151.128C190.792 152.099 191.501 153.256 191.986 154.6C192.509 155.907 192.77 157.456 192.77 159.248ZM219.316 130.8H228.276V170H219.316V154.376H210.244V170H201.284V130.8H210.244V146.424H219.316V130.8Z" fill="black"/>
<defs>
<filter id="filter0_d_50_14" x="9.72748e-05" y="0" width="323.2" height="248.1" filterUnits="userSpaceOnUse" color-interpolation-filters="sRGB">
<feFlood flood-opacity="0" result="BackgroundImageFix"/>
<feColorMatrix in="SourceAlpha" type="matrix" values="0 0 0 0 0 0 0 0 0 0 0 0 0 0 0 0 0 0 127 0" result="hardAlpha"/>
<feOffset dy="15"/>
<feGaussianBlur stdDeviation="5.05"/>
<feComposite in2="hardAlpha" operator="out"/>
<feColorMatrix type="matrix" values="0 0 0 0 0 0 0 0 0 0 0 0 0 0 0 0 0 0 0.25 0"/>
<feBlend mode="normal" in2="BackgroundImageFix" result="effect1_dropShadow_50_14"/>
<feBlend mode="normal" in="SourceGraphic" in2="effect1_dropShadow_50_14" result="shape"/>
</filter>
</defs>
</svg>
