<svg width="534" height="227" viewBox="0 0 534 227" fill="none" xmlns="http://www.w3.org/2000/svg">
<g filter="url(#filter0_d_37_54)">
<g filter="url(#filter1_d_37_54)">
<mask id="path-1-inside-1_37_54" fill="white">
<path d="M98.1118 0C106.396 0 113.112 6.71573 113.112 15V45.6533H172.442V15C172.442 6.71573 179.158 0 187.442 0H222.683C230.967 0.00022145 237.683 6.71587 237.683 15V45.6533H296.473V15C296.473 6.71581 303.189 0.000131873 311.473 0H346.714C354.999 1.52928e-05 361.714 6.71574 361.714 15V45.6533H421.066V15C421.066 6.71573 427.782 0 436.066 0H471.306C479.59 0 486.306 6.71573 486.306 15V45.6533H523.1V201H10.1001V45.6533H47.8716V15C47.8716 6.71573 54.5873 0 62.8716 0H98.1118Z"/>
</mask>
<path d="M98.1118 0C106.396 0 113.112 6.71573 113.112 15V45.6533H172.442V15C172.442 6.71573 179.158 0 187.442 0H222.683C230.967 0.00022145 237.683 6.71587 237.683 15V45.6533H296.473V15C296.473 6.71581 303.189 0.000131873 311.473 0H346.714C354.999 1.52928e-05 361.714 6.71574 361.714 15V45.6533H421.066V15C421.066 6.71573 427.782 0 436.066 0H471.306C479.59 0 486.306 6.71573 486.306 15V45.6533H523.1V201H10.1001V45.6533H47.8716V15C47.8716 6.71573 54.5873 0 62.8716 0H98.1118Z" fill="#4553E8"/>
<path d="M113.112 45.6533H108.112V50.6533H113.112V45.6533ZM172.442 45.6533V50.6533H177.442V45.6533H172.442ZM172.442 15L167.442 15V15H172.442ZM222.683 0L222.683 -5H222.683V0ZM237.683 45.6533H232.683V50.6533H237.683V45.6533ZM296.473 45.6533V50.6533H301.473V45.6533H296.473ZM296.473 15L291.473 15V15H296.473ZM311.473 0V-5H311.473L311.473 0ZM346.714 0V-5V-5V0ZM361.714 45.6533H356.714V50.6533H361.714V45.6533ZM421.066 45.6533V50.6533H426.066V45.6533H421.066ZM421.066 15L416.066 15V15H421.066ZM486.306 45.6533H481.306V50.6533H486.306V45.6533ZM523.1 45.6533H528.1V40.6533H523.1V45.6533ZM523.1 201V206H528.1V201H523.1ZM10.1001 201H5.1001V206H10.1001V201ZM10.1001 45.6533V40.6533H5.1001V45.6533H10.1001ZM47.8716 45.6533V50.6533H52.8716V45.6533H47.8716ZM47.8716 15L42.8716 15V15H47.8716ZM98.1118 0V5C103.635 5 108.112 9.47715 108.112 15H113.112H118.112C118.112 3.95431 109.158 -5 98.1118 -5V0ZM113.112 15H108.112V45.6533H113.112H118.112V15H113.112ZM113.112 45.6533V50.6533H172.442V45.6533V40.6533H113.112V45.6533ZM172.442 45.6533H177.442V15H172.442H167.442V45.6533H172.442ZM172.442 15L177.442 15C177.442 9.47715 181.919 5 187.442 5V0V-5C176.396 -5 167.442 3.95431 167.442 15L172.442 15ZM187.442 0V5H222.683V0V-5H187.442V0ZM222.683 0L222.683 5C228.206 5.00015 232.683 9.47742 232.683 15H237.683H242.683C242.683 3.95431 233.729 -4.9997 222.683 -5L222.683 0ZM237.683 15H232.683V45.6533H237.683H242.683V15H237.683ZM237.683 45.6533V50.6533H296.473V45.6533V40.6533H237.683V45.6533ZM296.473 45.6533H301.473V15H296.473H291.473V45.6533H296.473ZM296.473 15L301.473 15C301.473 9.47731 305.95 5.00009 311.473 5L311.473 0L311.473 -5C300.428 -4.99982 291.473 3.95431 291.473 15L296.473 15ZM311.473 0V5H346.714V0V-5H311.473V0ZM346.714 0V5C352.237 5.00001 356.714 9.47717 356.714 15H361.714H366.714C366.714 3.95431 357.76 -4.99998 346.714 -5V0ZM361.714 15H356.714V45.6533H361.714H366.714V15H361.714ZM361.714 45.6533V50.6533H421.066V45.6533V40.6533H361.714V45.6533ZM421.066 45.6533H426.066V15H421.066H416.066V45.6533H421.066ZM421.066 15L426.066 15C426.066 9.47715 430.543 5 436.066 5V0V-5C425.02 -5 416.066 3.95431 416.066 15L421.066 15ZM436.066 0V5H471.306V0V-5H436.066V0ZM471.306 0V5C476.829 5 481.306 9.47715 481.306 15H486.306H491.306C491.306 3.95431 482.352 -5 471.306 -5V0ZM486.306 15H481.306V45.6533H486.306H491.306V15H486.306ZM486.306 45.6533V50.6533H523.1V45.6533V40.6533H486.306V45.6533ZM523.1 45.6533H518.1V201H523.1H528.1V45.6533H523.1ZM523.1 201V196H10.1001V201V206H523.1V201ZM10.1001 201H15.1001V45.6533H10.1001H5.1001V201H10.1001ZM10.1001 45.6533V50.6533H47.8716V45.6533V40.6533H10.1001V45.6533ZM47.8716 45.6533H52.8716V15H47.8716H42.8716V45.6533H47.8716ZM47.8716 15L52.8716 15C52.8716 9.47715 57.3487 5 62.8716 5V0V-5C51.8259 -5 42.8716 3.95431 42.8716 15L47.8716 15ZM62.8716 0V5H98.1118V0V-5H62.8716V0Z" fill="#3C1EC3" mask="url(#path-1-inside-1_37_54)"/>
</g>
<mask id="path-3-outside-2_37_54" maskUnits="userSpaceOnUse" x="122.1" y="91" width="290" height="79" fill="black">
<rect fill="white" x="122.1" y="91" width="290" height="79"/>
<path d="M161.324 96.8V110.624H141.932V126.272C143.852 125.568 145.836 125.024 147.884 124.64C149.932 124.192 151.948 123.904 153.932 123.776C155.916 123.648 157.772 123.68 159.5 123.872V137.216L158.54 137.792C157.196 137.344 155.628 137.088 153.836 137.024C152.108 136.96 150.22 137.056 148.172 137.312C146.124 137.568 144.044 138.048 141.932 138.752V164H126.764V96.8H161.324ZM177.145 96.8H192.313V164H177.145V96.8ZM240.987 96.8H255.771V164H240.027L225.723 126.656H224.763L225.435 164H210.651V96.8H226.395L240.699 134.912H241.659L240.987 96.8ZM274.064 96.8H289.232V164H274.064V96.8ZM346.45 145.568C346.45 149.728 345.586 153.28 343.858 156.224C342.13 159.104 339.73 161.312 336.658 162.848C333.65 164.384 330.194 165.152 326.29 165.152C323.218 165.152 320.338 164.768 317.65 164C315.026 163.296 312.754 162.432 310.834 161.408C308.914 160.384 307.506 159.52 306.61 158.816V143.936H308.53C310.578 145.856 313.074 147.552 316.018 149.024C318.962 150.432 321.714 151.136 324.274 151.136C325.554 151.136 326.674 150.944 327.634 150.56C328.658 150.112 329.458 149.504 330.034 148.736C330.61 147.968 330.898 147.072 330.898 146.048C330.898 144.384 330.354 143.04 329.266 142.016C328.242 140.992 326.61 139.84 324.37 138.56L317.65 134.72C315.666 133.568 313.714 132.192 311.794 130.592C309.874 128.992 308.274 126.976 306.994 124.544C305.778 122.112 305.17 119.104 305.17 115.52C305.17 111.232 306.066 107.616 307.858 104.672C309.65 101.728 312.018 99.52 314.962 98.048C317.97 96.512 321.298 95.744 324.946 95.744C327.698 95.744 330.226 96.032 332.53 96.608C334.834 97.12 336.914 97.856 338.77 98.816C340.69 99.712 342.29 100.8 343.57 102.08V116.96H341.65C339.602 114.784 337.202 113.056 334.45 111.776C331.762 110.432 329.106 109.76 326.482 109.76C324.882 109.76 323.506 110.176 322.354 111.008C321.266 111.776 320.722 112.928 320.722 114.464C320.722 116.064 321.458 117.472 322.93 118.688C324.402 119.904 326.418 121.28 328.978 122.816L335.89 127.04C338.066 128.384 339.922 129.92 341.458 131.648C343.058 133.312 344.274 135.296 345.106 137.6C346.002 139.84 346.45 142.496 346.45 145.568ZM391.957 96.8H407.317V164H391.957V137.216H376.405V164H361.045V96.8H376.405V123.584H391.957V96.8Z"/>
</mask>
<g filter="url(#filter2_i_37_54)">
<path d="M161.324 96.8V110.624H141.932V126.272C143.852 125.568 145.836 125.024 147.884 124.64C149.932 124.192 151.948 123.904 153.932 123.776C155.916 123.648 157.772 123.68 159.5 123.872V137.216L158.54 137.792C157.196 137.344 155.628 137.088 153.836 137.024C152.108 136.96 150.22 137.056 148.172 137.312C146.124 137.568 144.044 138.048 141.932 138.752V164H126.764V96.8H161.324ZM177.145 96.8H192.313V164H177.145V96.8ZM240.987 96.8H255.771V164H240.027L225.723 126.656H224.763L225.435 164H210.651V96.8H226.395L240.699 134.912H241.659L240.987 96.8ZM274.064 96.8H289.232V164H274.064V96.8ZM346.45 145.568C346.45 149.728 345.586 153.28 343.858 156.224C342.13 159.104 339.73 161.312 336.658 162.848C333.65 164.384 330.194 165.152 326.29 165.152C323.218 165.152 320.338 164.768 317.65 164C315.026 163.296 312.754 162.432 310.834 161.408C308.914 160.384 307.506 159.52 306.61 158.816V143.936H308.53C310.578 145.856 313.074 147.552 316.018 149.024C318.962 150.432 321.714 151.136 324.274 151.136C325.554 151.136 326.674 150.944 327.634 150.56C328.658 150.112 329.458 149.504 330.034 148.736C330.61 147.968 330.898 147.072 330.898 146.048C330.898 144.384 330.354 143.04 329.266 142.016C328.242 140.992 326.61 139.84 324.37 138.56L317.65 134.72C315.666 133.568 313.714 132.192 311.794 130.592C309.874 128.992 308.274 126.976 306.994 124.544C305.778 122.112 305.17 119.104 305.17 115.52C305.17 111.232 306.066 107.616 307.858 104.672C309.65 101.728 312.018 99.52 314.962 98.048C317.97 96.512 321.298 95.744 324.946 95.744C327.698 95.744 330.226 96.032 332.53 96.608C334.834 97.12 336.914 97.856 338.77 98.816C340.69 99.712 342.29 100.8 343.57 102.08V116.96H341.65C339.602 114.784 337.202 113.056 334.45 111.776C331.762 110.432 329.106 109.76 326.482 109.76C324.882 109.76 323.506 110.176 322.354 111.008C321.266 111.776 320.722 112.928 320.722 114.464C320.722 116.064 321.458 117.472 322.93 118.688C324.402 119.904 326.418 121.28 328.978 122.816L335.89 127.04C338.066 128.384 339.922 129.92 341.458 131.648C343.058 133.312 344.274 135.296 345.106 137.6C346.002 139.84 346.45 142.496 346.45 145.568ZM391.957 96.8H407.317V164H391.957V137.216H376.405V164H361.045V96.8H376.405V123.584H391.957V96.8Z" fill="white"/>
</g>
<path d="M161.324 96.8H165.324V92.8H161.324V96.8ZM161.324 110.624V114.624H165.324V110.624H161.324ZM141.932 110.624V106.624H137.932V110.624H141.932ZM141.932 126.272H137.932V131.999L143.309 130.028L141.932 126.272ZM147.884 124.64L148.621 128.571L148.68 128.56L148.739 128.548L147.884 124.64ZM153.932 123.776L153.674 119.784V119.784L153.932 123.776ZM159.5 123.872H163.5V120.292L159.942 119.896L159.5 123.872ZM159.5 137.216L161.558 140.646L163.5 139.481V137.216H159.5ZM158.54 137.792L157.275 141.587L159.02 142.169L160.598 141.222L158.54 137.792ZM153.836 137.024L153.688 141.021L153.693 141.021L153.836 137.024ZM148.172 137.312L147.676 133.343H147.676L148.172 137.312ZM141.932 138.752L140.667 134.957L137.932 135.869V138.752H141.932ZM141.932 164V168H145.932V164H141.932ZM126.764 164H122.764V168H126.764V164ZM126.764 96.8V92.8H122.764V96.8H126.764ZM161.324 96.8H157.324V110.624H161.324H165.324V96.8H161.324ZM161.324 110.624V106.624H141.932V110.624V114.624H161.324V110.624ZM141.932 110.624H137.932V126.272H141.932H145.932V110.624H141.932ZM141.932 126.272L143.309 130.028C145.017 129.401 146.787 128.915 148.621 128.571L147.884 124.64L147.147 120.709C144.885 121.133 142.687 121.735 140.555 122.516L141.932 126.272ZM147.884 124.64L148.739 128.548C150.601 128.14 152.417 127.882 154.189 127.768L153.932 123.776L153.674 119.784C151.479 119.926 149.263 120.244 147.029 120.732L147.884 124.64ZM153.932 123.776L154.189 127.768C155.973 127.653 157.593 127.685 159.058 127.848L159.5 123.872L159.942 119.896C157.951 119.675 155.859 119.643 153.674 119.784L153.932 123.776ZM159.5 123.872H155.5V137.216H159.5H163.5V123.872H159.5ZM159.5 137.216L157.442 133.786L156.482 134.362L158.54 137.792L160.598 141.222L161.558 140.646L159.5 137.216ZM158.54 137.792L159.805 133.997C158.017 133.401 156.056 133.101 153.979 133.027L153.836 137.024L153.693 141.021C155.2 141.075 156.375 141.287 157.275 141.587L158.54 137.792ZM153.836 137.024L153.984 133.027C152.004 132.953 149.898 133.065 147.676 133.343L148.172 137.312L148.668 141.281C150.542 141.047 152.211 140.967 153.688 141.021L153.836 137.024ZM148.172 137.312L147.676 133.343C145.347 133.634 143.009 134.176 140.667 134.957L141.932 138.752L143.197 142.547C145.078 141.92 146.901 141.502 148.668 141.281L148.172 137.312ZM141.932 138.752H137.932V164H141.932H145.932V138.752H141.932ZM141.932 164V160H126.764V164V168H141.932V164ZM126.764 164H130.764V96.8H126.764H122.764V164H126.764ZM126.764 96.8V100.8H161.324V96.8V92.8H126.764V96.8ZM177.145 96.8V92.8H173.145V96.8H177.145ZM192.313 96.8H196.313V92.8H192.313V96.8ZM192.313 164V168H196.313V164H192.313ZM177.145 164H173.145V168H177.145V164ZM177.145 96.8V100.8H192.313V96.8V92.8H177.145V96.8ZM192.313 96.8H188.313V164H192.313H196.313V96.8H192.313ZM192.313 164V160H177.145V164V168H192.313V164ZM177.145 164H181.145V96.8H177.145H173.145V164H177.145ZM240.987 96.8V92.8H236.916L236.988 96.8705L240.987 96.8ZM255.771 96.8H259.771V92.8H255.771V96.8ZM255.771 164V168H259.771V164H255.771ZM240.027 164L236.292 165.431L237.276 168H240.027V164ZM225.723 126.656L229.459 125.225L228.475 122.656H225.723V126.656ZM224.763 126.656V122.656H220.691L220.764 126.728L224.763 126.656ZM225.435 164V168H229.508L229.435 163.928L225.435 164ZM210.651 164H206.651V168H210.651V164ZM210.651 96.8V92.8H206.651V96.8H210.651ZM226.395 96.8L230.14 95.3945L229.167 92.8H226.395V96.8ZM240.699 134.912L236.954 136.318L237.928 138.912H240.699V134.912ZM241.659 134.912V138.912H245.73L245.659 134.841L241.659 134.912ZM240.987 96.8V100.8H255.771V96.8V92.8H240.987V96.8ZM255.771 96.8H251.771V164H255.771H259.771V96.8H255.771ZM255.771 164V160H240.027V164V168H255.771V164ZM240.027 164L243.763 162.569L229.459 125.225L225.723 126.656L221.988 128.087L236.292 165.431L240.027 164ZM225.723 126.656V122.656H224.763V126.656V130.656H225.723V126.656ZM224.763 126.656L220.764 126.728L221.436 164.072L225.435 164L229.435 163.928L228.763 126.584L224.763 126.656ZM225.435 164V160H210.651V164V168H225.435V164ZM210.651 164H214.651V96.8H210.651H206.651V164H210.651ZM210.651 96.8V100.8H226.395V96.8V92.8H210.651V96.8ZM226.395 96.8L222.65 98.2055L236.954 136.318L240.699 134.912L244.444 133.506L230.14 95.3945L226.395 96.8ZM240.699 134.912V138.912H241.659V134.912V130.912H240.699V134.912ZM241.659 134.912L245.659 134.841L244.987 96.7295L240.987 96.8L236.988 96.8705L237.66 134.983L241.659 134.912ZM274.064 96.8V92.8H270.064V96.8H274.064ZM289.232 96.8H293.232V92.8H289.232V96.8ZM289.232 164V168H293.232V164H289.232ZM274.064 164H270.064V168H274.064V164ZM274.064 96.8V100.8H289.232V96.8V92.8H274.064V96.8ZM289.232 96.8H285.232V164H289.232H293.232V96.8H289.232ZM289.232 164V160H274.064V164V168H289.232V164ZM274.064 164H278.064V96.8H274.064H270.064V164H274.064ZM343.858 156.224L347.288 158.282L347.298 158.265L347.308 158.249L343.858 156.224ZM336.658 162.848L334.869 159.27L334.854 159.278L334.839 159.286L336.658 162.848ZM317.65 164L318.749 160.154L318.718 160.145L318.687 160.137L317.65 164ZM310.834 161.408L308.952 164.937V164.937L310.834 161.408ZM306.61 158.816H302.61V160.76L304.139 161.961L306.61 158.816ZM306.61 143.936V139.936H302.61V143.936H306.61ZM308.53 143.936L311.266 141.018L310.112 139.936H308.53V143.936ZM316.018 149.024L314.229 152.602L314.261 152.617L314.292 152.633L316.018 149.024ZM327.634 150.56L329.12 154.274L329.179 154.25L329.237 154.225L327.634 150.56ZM330.034 148.736L326.834 146.336V146.336L330.034 148.736ZM329.266 142.016L326.438 144.844L326.48 144.887L326.525 144.929L329.266 142.016ZM324.37 138.56L326.355 135.087V135.087L324.37 138.56ZM317.65 134.72L315.642 138.179L315.654 138.186L315.666 138.193L317.65 134.72ZM311.794 130.592L309.233 133.665V133.665L311.794 130.592ZM306.994 124.544L303.416 126.333L303.435 126.37L303.454 126.407L306.994 124.544ZM307.858 104.672L304.441 102.592V102.592L307.858 104.672ZM314.962 98.048L316.751 101.626L316.766 101.618L316.781 101.61L314.962 98.048ZM332.53 96.608L331.56 100.489L331.611 100.501L331.662 100.513L332.53 96.608ZM338.77 98.816L336.932 102.369L337.005 102.406L337.079 102.441L338.77 98.816ZM343.57 102.08H347.57V100.423L346.399 99.2516L343.57 102.08ZM343.57 116.96V120.96H347.57V116.96H343.57ZM341.65 116.96L338.737 119.701L339.922 120.96H341.65V116.96ZM334.45 111.776L332.661 115.354L332.712 115.379L332.763 115.403L334.45 111.776ZM322.354 111.008L324.661 114.276L324.678 114.263L324.696 114.251L322.354 111.008ZM322.93 118.688L325.478 115.604V115.604L322.93 118.688ZM328.978 122.816L331.064 119.403L331.05 119.394L331.036 119.386L328.978 122.816ZM335.89 127.04L337.992 123.637L337.984 123.632L337.976 123.627L335.89 127.04ZM341.458 131.648L338.468 134.305L338.52 134.364L338.575 134.42L341.458 131.648ZM345.106 137.6L341.344 138.959L341.367 139.022L341.392 139.086L345.106 137.6ZM346.45 145.568H342.45C342.45 149.171 341.705 151.99 340.408 154.199L343.858 156.224L347.308 158.249C349.467 154.57 350.45 150.285 350.45 145.568H346.45ZM343.858 156.224L340.428 154.166C339.101 156.378 337.277 158.066 334.869 159.27L336.658 162.848L338.447 166.426C342.183 164.558 345.159 161.83 347.288 158.282L343.858 156.224ZM336.658 162.848L334.839 159.286C332.476 160.492 329.66 161.152 326.29 161.152V165.152V169.152C330.728 169.152 334.824 168.276 338.477 166.41L336.658 162.848ZM326.29 165.152V161.152C323.553 161.152 321.046 160.81 318.749 160.154L317.65 164L316.551 167.846C319.63 168.726 322.883 169.152 326.29 169.152V165.152ZM317.65 164L318.687 160.137C316.287 159.493 314.312 158.729 312.716 157.879L310.834 161.408L308.952 164.937C311.197 166.135 313.765 167.099 316.614 167.863L317.65 164ZM310.834 161.408L312.716 157.879C310.853 156.885 309.695 156.153 309.081 155.671L306.61 158.816L304.139 161.961C305.317 162.887 306.975 163.883 308.952 164.937L310.834 161.408ZM306.61 158.816H310.61V143.936H306.61H302.61V158.816H306.61ZM306.61 143.936V147.936H308.53V143.936V139.936H306.61V143.936ZM308.53 143.936L305.794 146.854C308.168 149.08 310.997 150.986 314.229 152.602L316.018 149.024L317.807 145.446C315.151 144.118 312.988 142.632 311.266 141.018L308.53 143.936ZM316.018 149.024L314.292 152.633C317.632 154.23 320.976 155.136 324.274 155.136V151.136V147.136C322.452 147.136 320.292 146.634 317.744 145.415L316.018 149.024ZM324.274 151.136V155.136C325.946 155.136 327.589 154.886 329.12 154.274L327.634 150.56L326.149 146.846C325.759 147.002 325.162 147.136 324.274 147.136V151.136ZM327.634 150.56L329.237 154.225C330.789 153.546 332.18 152.541 333.234 151.136L330.034 148.736L326.834 146.336C326.736 146.467 326.527 146.678 326.031 146.895L327.634 150.56ZM330.034 148.736L333.234 151.136C334.365 149.628 334.898 147.876 334.898 146.048H330.898H326.898C326.898 146.268 326.855 146.308 326.834 146.336L330.034 148.736ZM330.898 146.048H334.898C334.898 143.42 333.994 140.973 332.008 139.103L329.266 142.016L326.525 144.929C326.714 145.107 326.898 145.348 326.898 146.048H330.898ZM329.266 142.016L332.095 139.188C330.696 137.789 328.703 136.429 326.355 135.087L324.37 138.56L322.386 142.033C324.517 143.251 325.788 144.195 326.438 144.844L329.266 142.016ZM324.37 138.56L326.355 135.087L319.635 131.247L317.65 134.72L315.666 138.193L322.386 142.033L324.37 138.56ZM317.65 134.72L319.659 131.261C317.886 130.231 316.117 128.988 314.355 127.519L311.794 130.592L309.233 133.665C311.311 135.396 313.447 136.905 315.642 138.179L317.65 134.72ZM311.794 130.592L314.355 127.519C312.876 126.286 311.594 124.696 310.534 122.681L306.994 124.544L303.454 126.407C304.954 129.256 306.873 131.698 309.233 133.665L311.794 130.592ZM306.994 124.544L310.572 122.755C309.707 121.026 309.17 118.673 309.17 115.52H305.17H301.17C301.17 119.535 301.849 123.198 303.416 126.333L306.994 124.544ZM305.17 115.52H309.17C309.17 111.788 309.947 108.933 311.275 106.752L307.858 104.672L304.441 102.592C302.185 106.299 301.17 110.676 301.17 115.52H305.17ZM307.858 104.672L311.275 106.752C312.695 104.418 314.512 102.745 316.751 101.626L314.962 98.048L313.173 94.4703C309.524 96.2949 306.605 99.0375 304.441 102.592L307.858 104.672ZM314.962 98.048L316.781 101.61C319.182 100.385 321.879 99.744 324.946 99.744V95.744V91.744C320.717 91.744 316.759 92.6393 313.143 94.4856L314.962 98.048ZM324.946 95.744V99.744C327.421 99.744 329.619 100.003 331.56 100.489L332.53 96.608L333.5 92.7274C330.833 92.0607 327.975 91.744 324.946 91.744V95.744ZM332.53 96.608L331.662 100.513C333.672 100.959 335.42 101.586 336.932 102.369L338.77 98.816L340.608 95.2631C338.408 94.1255 335.996 93.2807 333.398 92.7032L332.53 96.608ZM338.77 98.816L337.079 102.441C338.647 103.173 339.842 104.009 340.742 104.908L343.57 102.08L346.399 99.2516C344.738 97.591 342.734 96.2515 340.462 95.1913L338.77 98.816ZM343.57 102.08H339.57V116.96H343.57H347.57V102.08H343.57ZM343.57 116.96V112.96H341.65V116.96V120.96H343.57V116.96ZM341.65 116.96L344.563 114.219C342.161 111.666 339.343 109.64 336.137 108.149L334.45 111.776L332.763 115.403C335.061 116.472 337.043 117.902 338.737 119.701L341.65 116.96ZM334.45 111.776L336.239 108.198C333.077 106.617 329.812 105.76 326.482 105.76V109.76V113.76C328.4 113.76 330.448 114.247 332.661 115.354L334.45 111.776ZM326.482 109.76V105.76C324.152 105.76 321.93 106.38 320.012 107.765L322.354 111.008L324.696 114.251C325.082 113.972 325.612 113.76 326.482 113.76V109.76ZM322.354 111.008L320.047 107.74C317.723 109.381 316.722 111.858 316.722 114.464H320.722H324.722C324.722 114.167 324.774 114.099 324.747 114.156C324.735 114.182 324.714 114.216 324.688 114.247C324.662 114.277 324.648 114.285 324.661 114.276L322.354 111.008ZM320.722 114.464H316.722C316.722 117.491 318.188 119.959 320.383 121.772L322.93 118.688L325.478 115.604C324.729 114.985 324.722 114.637 324.722 114.464H320.722ZM322.93 118.688L320.383 121.772C322.069 123.165 324.273 124.657 326.92 126.246L328.978 122.816L331.036 119.386C328.564 117.903 326.735 116.643 325.478 115.604L322.93 118.688ZM328.978 122.816L326.892 126.229L333.804 130.453L335.89 127.04L337.976 123.627L331.064 119.403L328.978 122.816ZM335.89 127.04L333.788 130.443C335.668 131.604 337.216 132.897 338.468 134.305L341.458 131.648L344.448 128.991C342.628 126.943 340.464 125.164 337.992 123.637L335.89 127.04ZM341.458 131.648L338.575 134.42C339.762 135.656 340.691 137.149 341.344 138.959L345.106 137.6L348.868 136.241C347.858 133.443 346.354 130.968 344.341 128.876L341.458 131.648ZM345.106 137.6L341.392 139.086C342.055 140.743 342.45 142.872 342.45 145.568H346.45H350.45C350.45 142.12 349.949 138.937 348.82 136.114L345.106 137.6ZM391.957 96.8V92.8H387.957V96.8H391.957ZM407.317 96.8H411.317V92.8H407.317V96.8ZM407.317 164V168H411.317V164H407.317ZM391.957 164H387.957V168H391.957V164ZM391.957 137.216H395.957V133.216H391.957V137.216ZM376.405 137.216V133.216H372.405V137.216H376.405ZM376.405 164V168H380.405V164H376.405ZM361.045 164H357.045V168H361.045V164ZM361.045 96.8V92.8H357.045V96.8H361.045ZM376.405 96.8H380.405V92.8H376.405V96.8ZM376.405 123.584H372.405V127.584H376.405V123.584ZM391.957 123.584V127.584H395.957V123.584H391.957ZM391.957 96.8V100.8H407.317V96.8V92.8H391.957V96.8ZM407.317 96.8H403.317V164H407.317H411.317V96.8H407.317ZM407.317 164V160H391.957V164V168H407.317V164ZM391.957 164H395.957V137.216H391.957H387.957V164H391.957ZM391.957 137.216V133.216H376.405V137.216V141.216H391.957V137.216ZM376.405 137.216H372.405V164H376.405H380.405V137.216H376.405ZM376.405 164V160H361.045V164V168H376.405V164ZM361.045 164H365.045V96.8H361.045H357.045V164H361.045ZM361.045 96.8V100.8H376.405V96.8V92.8H361.045V96.8ZM376.405 96.8H372.405V123.584H376.405H380.405V96.8H376.405ZM376.405 123.584V127.584H391.957V123.584V119.584H376.405V123.584ZM391.957 123.584H395.957V96.8H391.957H387.957V123.584H391.957Z" fill="#3C1EC3" mask="url(#path-3-outside-2_37_54)"/>
</g>
<defs>
<filter id="filter0_d_37_54" x="6.1001" y="0" width="521" height="209" filterUnits="userSpaceOnUse" color-interpolation-filters="sRGB">
<feFlood flood-opacity="0" result="BackgroundImageFix"/>
<feColorMatrix in="SourceAlpha" type="matrix" values="0 0 0 0 0 0 0 0 0 0 0 0 0 0 0 0 0 0 127 0" result="hardAlpha"/>
<feOffset dy="4"/>
<feGaussianBlur stdDeviation="2"/>
<feComposite in2="hardAlpha" operator="out"/>
<feColorMatrix type="matrix" values="0 0 0 0 0 0 0 0 0 0 0 0 0 0 0 0 0 0 0.25 0"/>
<feBlend mode="normal" in2="BackgroundImageFix" result="effect1_dropShadow_37_54"/>
<feBlend mode="normal" in="SourceGraphic" in2="effect1_dropShadow_37_54" result="shape"/>
</filter>
<filter id="filter1_d_37_54" x="9.72748e-05" y="0" width="533.2" height="226.1" filterUnits="userSpaceOnUse" color-interpolation-filters="sRGB">
<feFlood flood-opacity="0" result="BackgroundImageFix"/>
<feColorMatrix in="SourceAlpha" type="matrix" values="0 0 0 0 0 0 0 0 0 0 0 0 0 0 0 0 0 0 127 0" result="hardAlpha"/>
<feOffset dy="15"/>
<feGaussianBlur stdDeviation="5.05"/>
<feComposite in2="hardAlpha" operator="out"/>
<feColorMatrix type="matrix" values="0 0 0 0 0 0 0 0 0 0 0 0 0 0 0 0 0 0 0.25 0"/>
<feBlend mode="normal" in2="BackgroundImageFix" result="effect1_dropShadow_37_54"/>
<feBlend mode="normal" in="SourceGraphic" in2="effect1_dropShadow_37_54" result="shape"/>
</filter>
<filter id="filter2_i_37_54" x="122.764" y="84.744" width="295.553" height="84.408" filterUnits="userSpaceOnUse" color-interpolation-filters="sRGB">
<feFlood flood-opacity="0" result="BackgroundImageFix"/>
<feBlend mode="normal" in="SourceGraphic" in2="BackgroundImageFix" result="shape"/>
<feColorMatrix in="SourceAlpha" type="matrix" values="0 0 0 0 0 0 0 0 0 0 0 0 0 0 0 0 0 0 127 0" result="hardAlpha"/>
<feOffset dx="10" dy="-8"/>
<feGaussianBlur stdDeviation="3.5"/>
<feComposite in2="hardAlpha" operator="arithmetic" k2="-1" k3="1"/>
<feColorMatrix type="matrix" values="0 0 0 0 0 0 0 0 0 0 0 0 0 0 0 0 0 0 0.15 0"/>
<feBlend mode="normal" in2="shape" result="effect1_innerShadow_37_54"/>
</filter>
</defs>
</svg>
