<svg width="324" height="249" viewBox="0 0 324 249" fill="none" xmlns="http://www.w3.org/2000/svg">
<g filter="url(#filter0_d_37_155)">
<mask id="path-1-inside-1_37_155" fill="white">
<path d="M184.665 50.6504H153.007L10.1001 133.659V223H313.1V50.6504H261.545V0H184.665V50.6504Z"/>
</mask>
<path d="M184.665 50.6504H153.007L10.1001 133.659V223H313.1V50.6504H261.545V0H184.665V50.6504Z" fill="white"/>
<path d="M184.665 50.6504H189.665V55.6504H184.665V50.6504ZM153.007 50.6504L150.496 46.3268L151.661 45.6504H153.007V50.6504ZM10.1001 133.659H5.1001V130.781L7.58875 129.336L10.1001 133.659ZM10.1001 223V228H5.1001V223H10.1001ZM313.1 223H318.1V228H313.1V223ZM313.1 50.6504V45.6504H318.1V50.6504H313.1ZM261.545 50.6504V55.6504H256.545V50.6504H261.545ZM261.545 0V-5H266.545V0H261.545ZM184.665 0H179.665V-5H184.665V0ZM184.665 50.6504V55.6504H153.007V50.6504V45.6504H184.665V50.6504ZM153.007 50.6504L155.519 54.9739L12.6115 137.983L10.1001 133.659L7.58875 129.336L150.496 46.3268L153.007 50.6504ZM10.1001 133.659H15.1001V223H10.1001H5.1001V133.659H10.1001ZM10.1001 223V218H313.1V223V228H10.1001V223ZM313.1 223H308.1V50.6504H313.1H318.1V223H313.1ZM313.1 50.6504V55.6504H261.545V50.6504V45.6504H313.1V50.6504ZM261.545 50.6504H256.545V0H261.545H266.545V50.6504H261.545ZM261.545 0V5H184.665V0V-5H261.545V0ZM184.665 0H189.665V50.6504H184.665H179.665V0H184.665Z" fill="#939393" mask="url(#path-1-inside-1_37_155)"/>
</g>
<path d="M84.7321 123.8H93.5801V163H84.6201L84.7321 123.8ZM99.2921 123.8C101.532 123.8 103.529 124.248 105.284 125.144C107.039 126.003 108.42 127.328 109.428 129.12C110.436 130.875 110.94 133.096 110.94 135.784C110.94 138.547 110.38 140.843 109.26 142.672C108.14 144.501 106.684 145.883 104.892 146.816C103.137 147.712 101.271 148.16 99.2921 148.16H89.0441V123.8H99.2921ZM93.5801 140.6H98.1161C98.9001 140.6 99.5534 140.413 100.076 140.04C100.636 139.667 101.047 139.144 101.308 138.472C101.607 137.763 101.756 136.979 101.756 136.12C101.756 135.261 101.607 134.515 101.308 133.88C101.047 133.245 100.636 132.76 100.076 132.424C99.5534 132.051 98.9001 131.864 98.1161 131.864H93.5801V140.6ZM95.4281 143.4H103.94L110.94 161.6V163H101.7L95.4281 143.4ZM140.461 123.8V131.864H129.037V140.152C130.157 139.741 131.314 139.424 132.509 139.2C133.704 138.939 134.88 138.771 136.037 138.696C137.194 138.621 138.277 138.64 139.285 138.752V146.536L138.725 146.872C137.941 146.611 137.026 146.461 135.981 146.424C134.973 146.387 133.872 146.443 132.677 146.592C131.482 146.741 130.269 147.021 129.037 147.432V154.936H140.461V163H120.189V123.8H140.461ZM149.961 163V123.8H163.961C166.35 123.8 168.422 124.248 170.177 125.144C171.969 126.04 173.369 127.44 174.377 129.344C175.385 131.248 175.889 133.731 175.889 136.792C175.889 139.816 175.329 142.336 174.209 144.352C173.126 146.331 171.67 147.824 169.841 148.832C168.049 149.803 166.089 150.288 163.961 150.288H158.809V163H149.961ZM158.809 142.672H162.617C163.513 142.672 164.278 142.448 164.913 142C165.547 141.515 166.014 140.861 166.313 140.04C166.649 139.181 166.817 138.229 166.817 137.184C166.817 136.139 166.649 135.224 166.313 134.44C166.014 133.619 165.547 132.984 164.913 132.536C164.278 132.088 163.513 131.864 162.617 131.864H158.809V142.672ZM184.272 123.8H193.12V154.936H202.864V163H184.272V123.8ZM210.382 163V161.6L218.166 123.8L233.062 123.856L240.846 161.6V163H231.606L230.206 154.096H221.022L219.622 163H210.382ZM222.198 146.368H229.03L226.79 132.2H224.438L222.198 146.368ZM244.694 123.8H253.99L258.358 142.56H260.934L265.302 123.8H274.598V125.2L267.542 151.016H264.07V163H255.222V151.072H251.75L244.694 125.2V123.8Z" fill="black"/>
<defs>
<filter id="filter0_d_37_155" x="9.72748e-05" y="0" width="323.2" height="248.1" filterUnits="userSpaceOnUse" color-interpolation-filters="sRGB">
<feFlood flood-opacity="0" result="BackgroundImageFix"/>
<feColorMatrix in="SourceAlpha" type="matrix" values="0 0 0 0 0 0 0 0 0 0 0 0 0 0 0 0 0 0 127 0" result="hardAlpha"/>
<feOffset dy="15"/>
<feGaussianBlur stdDeviation="5.05"/>
<feComposite in2="hardAlpha" operator="out"/>
<feColorMatrix type="matrix" values="0 0 0 0 0 0 0 0 0 0 0 0 0 0 0 0 0 0 0.25 0"/>
<feBlend mode="normal" in2="BackgroundImageFix" result="effect1_dropShadow_37_155"/>
<feBlend mode="normal" in="SourceGraphic" in2="effect1_dropShadow_37_155" result="shape"/>
</filter>
</defs>
</svg>
