<svg width="324" height="249" viewBox="0 0 324 249" fill="none" xmlns="http://www.w3.org/2000/svg">
<g filter="url(#filter0_d_37_163)">
<mask id="path-1-inside-1_37_163" fill="white">
<path d="M138.536 50.6494H170.193L313.1 133.659V223H10.1001V50.6494H61.6548V0H138.536V50.6494Z"/>
</mask>
<path d="M138.536 50.6494H170.193L313.1 133.659V223H10.1001V50.6494H61.6548V0H138.536V50.6494Z" fill="white"/>
<path d="M138.536 50.6494H133.536V55.6494H138.536V50.6494ZM170.193 50.6494L172.704 46.3259L171.54 45.6494H170.193V50.6494ZM313.1 133.659H318.1V130.781L315.611 129.336L313.1 133.659ZM313.1 223V228H318.1V223H313.1ZM10.1001 223H5.1001V228H10.1001V223ZM10.1001 50.6494V45.6494H5.1001V50.6494H10.1001ZM61.6548 50.6494V55.6494H66.6548V50.6494H61.6548ZM61.6548 0V-5H56.6548V0H61.6548ZM138.536 0H143.536V-5H138.536V0ZM138.536 50.6494V55.6494H170.193V50.6494V45.6494H138.536V50.6494ZM170.193 50.6494L167.681 54.9729L310.589 137.983L313.1 133.659L315.611 129.336L172.704 46.3259L170.193 50.6494ZM313.1 133.659H308.1V223H313.1H318.1V133.659H313.1ZM313.1 223V218H10.1001V223V228H313.1V223ZM10.1001 223H15.1001V50.6494H10.1001H5.1001V223H10.1001ZM10.1001 50.6494V55.6494H61.6548V50.6494V45.6494H10.1001V50.6494ZM61.6548 50.6494H66.6548V0H61.6548H56.6548V50.6494H61.6548ZM61.6548 0V5H138.536V0V-5H61.6548V0ZM138.536 0H133.536V50.6494H138.536H143.536V0H138.536Z" fill="#939393" mask="url(#path-1-inside-1_37_163)"/>
</g>
<path d="M50.7321 123.8H59.5801V163H50.6201L50.7321 123.8ZM65.2921 123.8C67.5321 123.8 69.5294 124.248 71.2841 125.144C73.0388 126.003 74.4201 127.328 75.4281 129.12C76.4361 130.875 76.9401 133.096 76.9401 135.784C76.9401 138.547 76.3801 140.843 75.2601 142.672C74.1401 144.501 72.6841 145.883 70.8921 146.816C69.1374 147.712 67.2708 148.16 65.2921 148.16H55.0441V123.8H65.2921ZM59.5801 140.6H64.1161C64.9001 140.6 65.5534 140.413 66.0761 140.04C66.6361 139.667 67.0468 139.144 67.3081 138.472C67.6068 137.763 67.7561 136.979 67.7561 136.12C67.7561 135.261 67.6068 134.515 67.3081 133.88C67.0468 133.245 66.6361 132.76 66.0761 132.424C65.5534 132.051 64.9001 131.864 64.1161 131.864H59.5801V140.6ZM61.4281 143.4H69.9401L76.9401 161.6V163H67.7001L61.4281 143.4ZM106.461 123.8V131.864H95.0368V140.152C96.1568 139.741 97.3142 139.424 98.5088 139.2C99.7035 138.939 100.88 138.771 102.037 138.696C103.194 138.621 104.277 138.64 105.285 138.752V146.536L104.725 146.872C103.941 146.611 103.026 146.461 101.981 146.424C100.973 146.387 99.8715 146.443 98.6768 146.592C97.4822 146.741 96.2688 147.021 95.0368 147.432V154.936H106.461V163H86.1888V123.8H106.461ZM138.531 152.248C138.531 154.675 138.027 156.747 137.019 158.464C136.011 160.144 134.611 161.432 132.819 162.328C131.065 163.224 129.049 163.672 126.771 163.672C124.979 163.672 123.299 163.448 121.731 163C120.201 162.589 118.875 162.085 117.755 161.488C116.635 160.891 115.814 160.387 115.291 159.976V151.296H116.411C117.606 152.416 119.062 153.405 120.779 154.264C122.497 155.085 124.102 155.496 125.595 155.496C126.342 155.496 126.995 155.384 127.555 155.16C128.153 154.899 128.619 154.544 128.955 154.096C129.291 153.648 129.459 153.125 129.459 152.528C129.459 151.557 129.142 150.773 128.507 150.176C127.91 149.579 126.958 148.907 125.651 148.16L121.731 145.92C120.574 145.248 119.435 144.445 118.315 143.512C117.195 142.579 116.262 141.403 115.515 139.984C114.806 138.565 114.451 136.811 114.451 134.72C114.451 132.219 114.974 130.109 116.019 128.392C117.065 126.675 118.446 125.387 120.163 124.528C121.918 123.632 123.859 123.184 125.987 123.184C127.593 123.184 129.067 123.352 130.411 123.688C131.755 123.987 132.969 124.416 134.051 124.976C135.171 125.499 136.105 126.133 136.851 126.88V135.56H135.731C134.537 134.291 133.137 133.283 131.531 132.536C129.963 131.752 128.414 131.36 126.883 131.36C125.95 131.36 125.147 131.603 124.475 132.088C123.841 132.536 123.523 133.208 123.523 134.104C123.523 135.037 123.953 135.859 124.811 136.568C125.67 137.277 126.846 138.08 128.339 138.976L132.371 141.44C133.641 142.224 134.723 143.12 135.619 144.128C136.553 145.099 137.262 146.256 137.747 147.6C138.27 148.907 138.531 150.456 138.531 152.248ZM167.317 123.8V131.864H155.893V140.152C157.013 139.741 158.17 139.424 159.365 139.2C160.56 138.939 161.736 138.771 162.893 138.696C164.05 138.621 165.133 138.64 166.141 138.752V146.536L165.581 146.872C164.797 146.611 163.882 146.461 162.837 146.424C161.829 146.387 160.728 146.443 159.533 146.592C158.338 146.741 157.125 147.021 155.893 147.432V154.936H167.317V163H147.045V123.8H167.317ZM198.041 123.8V131.976H190.985V163H182.137V131.976H174.857V123.8H198.041Z" fill="black"/>
<defs>
<filter id="filter0_d_37_163" x="9.72748e-05" y="0" width="323.2" height="248.1" filterUnits="userSpaceOnUse" color-interpolation-filters="sRGB">
<feFlood flood-opacity="0" result="BackgroundImageFix"/>
<feColorMatrix in="SourceAlpha" type="matrix" values="0 0 0 0 0 0 0 0 0 0 0 0 0 0 0 0 0 0 127 0" result="hardAlpha"/>
<feOffset dy="15"/>
<feGaussianBlur stdDeviation="5.05"/>
<feComposite in2="hardAlpha" operator="out"/>
<feColorMatrix type="matrix" values="0 0 0 0 0 0 0 0 0 0 0 0 0 0 0 0 0 0 0.25 0"/>
<feBlend mode="normal" in2="BackgroundImageFix" result="effect1_dropShadow_37_163"/>
<feBlend mode="normal" in="SourceGraphic" in2="effect1_dropShadow_37_163" result="shape"/>
</filter>
</defs>
</svg>
