<svg width="534" height="227" viewBox="0 0 534 227" fill="none" xmlns="http://www.w3.org/2000/svg">
<g filter="url(#filter0_d_22_36)">
<g filter="url(#filter1_d_22_36)">
<mask id="path-1-inside-1_22_36" fill="white">
<path d="M98.1118 0C106.396 0 113.112 6.71573 113.112 15V45.8584H172.442V15C172.442 6.71574 179.158 0 187.442 0H222.683C230.967 0.00022145 237.683 6.71587 237.683 15V45.8584H296.473V15C296.473 6.71582 303.189 0.000131873 311.473 0H346.714C354.999 1.52928e-05 361.714 6.71574 361.714 15V45.8584H421.066V15C421.066 6.71574 427.782 0 436.066 0H471.306C479.59 0 486.306 6.71573 486.306 15V45.8584H523.1V201.903H10.1001V45.8584H47.8716V15C47.8716 6.71574 54.5873 0 62.8716 0H98.1118Z"/>
</mask>
<path d="M98.1118 0C106.396 0 113.112 6.71573 113.112 15V45.8584H172.442V15C172.442 6.71574 179.158 0 187.442 0H222.683C230.967 0.00022145 237.683 6.71587 237.683 15V45.8584H296.473V15C296.473 6.71582 303.189 0.000131873 311.473 0H346.714C354.999 1.52928e-05 361.714 6.71574 361.714 15V45.8584H421.066V15C421.066 6.71574 427.782 0 436.066 0H471.306C479.59 0 486.306 6.71573 486.306 15V45.8584H523.1V201.903H10.1001V45.8584H47.8716V15C47.8716 6.71574 54.5873 0 62.8716 0H98.1118Z" fill="#0FD475"/>
<path d="M113.112 45.8584H108.112V50.8584H113.112V45.8584ZM172.442 45.8584V50.8584H177.442V45.8584H172.442ZM172.442 15L167.442 15V15H172.442ZM222.683 0L222.683 -5H222.683V0ZM237.683 45.8584H232.683V50.8584H237.683V45.8584ZM296.473 45.8584V50.8584H301.473V45.8584H296.473ZM296.473 15L291.473 15V15H296.473ZM311.473 0V-5H311.473L311.473 0ZM346.714 0V-5V-5V0ZM361.714 45.8584H356.714V50.8584H361.714V45.8584ZM421.066 45.8584V50.8584H426.066V45.8584H421.066ZM421.066 15L416.066 15V15H421.066ZM486.306 45.8584H481.306V50.8584H486.306V45.8584ZM523.1 45.8584H528.1V40.8584H523.1V45.8584ZM523.1 201.903V206.903H528.1V201.903H523.1ZM10.1001 201.903H5.1001V206.903H10.1001V201.903ZM10.1001 45.8584V40.8584H5.1001V45.8584H10.1001ZM47.8716 45.8584V50.8584H52.8716V45.8584H47.8716ZM47.8716 15L42.8716 15V15H47.8716ZM98.1118 0V5C103.635 5 108.112 9.47715 108.112 15H113.112H118.112C118.112 3.95431 109.158 -5 98.1118 -5V0ZM113.112 15H108.112V45.8584H113.112H118.112V15H113.112ZM113.112 45.8584V50.8584H172.442V45.8584V40.8584H113.112V45.8584ZM172.442 45.8584H177.442V15H172.442H167.442V45.8584H172.442ZM172.442 15L177.442 15C177.442 9.47716 181.919 5 187.442 5V0V-5C176.396 -5 167.442 3.95432 167.442 15L172.442 15ZM187.442 0V5H222.683V0V-5H187.442V0ZM222.683 0L222.683 5C228.206 5.00015 232.683 9.47742 232.683 15H237.683H242.683C242.683 3.95431 233.729 -4.9997 222.683 -5L222.683 0ZM237.683 15H232.683V45.8584H237.683H242.683V15H237.683ZM237.683 45.8584V50.8584H296.473V45.8584V40.8584H237.683V45.8584ZM296.473 45.8584H301.473V15H296.473H291.473V45.8584H296.473ZM296.473 15L301.473 15C301.473 9.47732 305.95 5.00009 311.473 5L311.473 0L311.473 -5C300.428 -4.99982 291.473 3.95432 291.473 15L296.473 15ZM311.473 0V5H346.714V0V-5H311.473V0ZM346.714 0V5C352.237 5.00001 356.714 9.47717 356.714 15H361.714H366.714C366.714 3.95431 357.76 -4.99998 346.714 -5V0ZM361.714 15H356.714V45.8584H361.714H366.714V15H361.714ZM361.714 45.8584V50.8584H421.066V45.8584V40.8584H361.714V45.8584ZM421.066 45.8584H426.066V15H421.066H416.066V45.8584H421.066ZM421.066 15L426.066 15C426.066 9.47716 430.543 5 436.066 5V0V-5C425.02 -5 416.066 3.95432 416.066 15L421.066 15ZM436.066 0V5H471.306V0V-5H436.066V0ZM471.306 0V5C476.829 5 481.306 9.47715 481.306 15H486.306H491.306C491.306 3.95431 482.352 -5 471.306 -5V0ZM486.306 15H481.306V45.8584H486.306H491.306V15H486.306ZM486.306 45.8584V50.8584H523.1V45.8584V40.8584H486.306V45.8584ZM523.1 45.8584H518.1V201.903H523.1H528.1V45.8584H523.1ZM523.1 201.903V196.903H10.1001V201.903V206.903H523.1V201.903ZM10.1001 201.903H15.1001V45.8584H10.1001H5.1001V201.903H10.1001ZM10.1001 45.8584V50.8584H47.8716V45.8584V40.8584H10.1001V45.8584ZM47.8716 45.8584H52.8716V15H47.8716H42.8716V45.8584H47.8716ZM47.8716 15L52.8716 15C52.8716 9.47716 57.3487 5 62.8716 5V0V-5C51.8259 -5 42.8716 3.95432 42.8716 15L47.8716 15ZM62.8716 0V5H98.1118V0V-5H62.8716V0Z" fill="#14913E" mask="url(#path-1-inside-1_22_36)"/>
</g>
<mask id="path-3-outside-2_22_36" maskUnits="userSpaceOnUse" x="132.1" y="91" width="270" height="79" fill="black">
<rect fill="white" x="132.1" y="91" width="270" height="79"/>
<path d="M177.631 145.568C177.631 149.728 176.767 153.28 175.039 156.224C173.311 159.104 170.911 161.312 167.839 162.848C164.831 164.384 161.375 165.152 157.471 165.152C154.399 165.152 151.519 164.768 148.831 164C146.207 163.296 143.935 162.432 142.015 161.408C140.095 160.384 138.687 159.52 137.791 158.816V143.936H139.711C141.759 145.856 144.255 147.552 147.199 149.024C150.143 150.432 152.895 151.136 155.455 151.136C156.735 151.136 157.855 150.944 158.815 150.56C159.839 150.112 160.639 149.504 161.215 148.736C161.791 147.968 162.079 147.072 162.079 146.048C162.079 144.384 161.535 143.04 160.447 142.016C159.423 140.992 157.791 139.84 155.551 138.56L148.831 134.72C146.847 133.568 144.895 132.192 142.975 130.592C141.055 128.992 139.455 126.976 138.175 124.544C136.959 122.112 136.351 119.104 136.351 115.52C136.351 111.232 137.247 107.616 139.039 104.672C140.831 101.728 143.199 99.52 146.143 98.048C149.151 96.512 152.479 95.744 156.127 95.744C158.879 95.744 161.407 96.032 163.711 96.608C166.015 97.12 168.095 97.856 169.951 98.816C171.871 99.712 173.471 100.8 174.751 102.08V116.96H172.831C170.783 114.784 168.383 113.056 165.631 111.776C162.943 110.432 160.287 109.76 157.663 109.76C156.063 109.76 154.687 110.176 153.535 111.008C152.447 111.776 151.903 112.928 151.903 114.464C151.903 116.064 152.639 117.472 154.111 118.688C155.583 119.904 157.599 121.28 160.159 122.816L167.071 127.04C169.247 128.384 171.103 129.92 172.639 131.648C174.239 133.312 175.455 135.296 176.287 137.6C177.183 139.84 177.631 142.496 177.631 145.568ZM228.048 96.8V110.816H215.952V164H200.784V110.816H188.304V96.8H228.048ZM234.268 164V161.6L247.612 96.8L273.148 96.896L286.492 161.6V164H270.652L268.252 148.736H252.508L250.108 164H234.268ZM254.524 135.488H266.236L262.396 111.2H258.364L254.524 135.488ZM301.056 96.8H316.224V164H300.864L301.056 96.8ZM326.016 96.8C329.856 96.8 333.28 97.568 336.288 99.104C339.296 100.576 341.664 102.848 343.392 105.92C345.12 108.928 345.984 112.736 345.984 117.344C345.984 122.08 345.024 126.016 343.104 129.152C341.184 132.288 338.688 134.656 335.616 136.256C332.608 137.792 329.408 138.56 326.016 138.56H308.448V96.8H326.016ZM316.224 125.6H324C325.344 125.6 326.464 125.28 327.36 124.64C328.32 124 329.024 123.104 329.472 121.952C329.984 120.736 330.24 119.392 330.24 117.92C330.24 116.448 329.984 115.168 329.472 114.08C329.024 112.992 328.32 112.16 327.36 111.584C326.464 110.944 325.344 110.624 324 110.624H316.224V125.6ZM319.392 130.4H333.984L345.984 161.6V164H330.144L319.392 130.4ZM397.848 96.8V110.816H385.752V164H370.584V110.816H358.104V96.8H397.848Z"/>
</mask>
<g filter="url(#filter2_i_22_36)">
<path d="M177.631 145.568C177.631 149.728 176.767 153.28 175.039 156.224C173.311 159.104 170.911 161.312 167.839 162.848C164.831 164.384 161.375 165.152 157.471 165.152C154.399 165.152 151.519 164.768 148.831 164C146.207 163.296 143.935 162.432 142.015 161.408C140.095 160.384 138.687 159.52 137.791 158.816V143.936H139.711C141.759 145.856 144.255 147.552 147.199 149.024C150.143 150.432 152.895 151.136 155.455 151.136C156.735 151.136 157.855 150.944 158.815 150.56C159.839 150.112 160.639 149.504 161.215 148.736C161.791 147.968 162.079 147.072 162.079 146.048C162.079 144.384 161.535 143.04 160.447 142.016C159.423 140.992 157.791 139.84 155.551 138.56L148.831 134.72C146.847 133.568 144.895 132.192 142.975 130.592C141.055 128.992 139.455 126.976 138.175 124.544C136.959 122.112 136.351 119.104 136.351 115.52C136.351 111.232 137.247 107.616 139.039 104.672C140.831 101.728 143.199 99.52 146.143 98.048C149.151 96.512 152.479 95.744 156.127 95.744C158.879 95.744 161.407 96.032 163.711 96.608C166.015 97.12 168.095 97.856 169.951 98.816C171.871 99.712 173.471 100.8 174.751 102.08V116.96H172.831C170.783 114.784 168.383 113.056 165.631 111.776C162.943 110.432 160.287 109.76 157.663 109.76C156.063 109.76 154.687 110.176 153.535 111.008C152.447 111.776 151.903 112.928 151.903 114.464C151.903 116.064 152.639 117.472 154.111 118.688C155.583 119.904 157.599 121.28 160.159 122.816L167.071 127.04C169.247 128.384 171.103 129.92 172.639 131.648C174.239 133.312 175.455 135.296 176.287 137.6C177.183 139.84 177.631 142.496 177.631 145.568ZM228.048 96.8V110.816H215.952V164H200.784V110.816H188.304V96.8H228.048ZM234.268 164V161.6L247.612 96.8L273.148 96.896L286.492 161.6V164H270.652L268.252 148.736H252.508L250.108 164H234.268ZM254.524 135.488H266.236L262.396 111.2H258.364L254.524 135.488ZM301.056 96.8H316.224V164H300.864L301.056 96.8ZM326.016 96.8C329.856 96.8 333.28 97.568 336.288 99.104C339.296 100.576 341.664 102.848 343.392 105.92C345.12 108.928 345.984 112.736 345.984 117.344C345.984 122.08 345.024 126.016 343.104 129.152C341.184 132.288 338.688 134.656 335.616 136.256C332.608 137.792 329.408 138.56 326.016 138.56H308.448V96.8H326.016ZM316.224 125.6H324C325.344 125.6 326.464 125.28 327.36 124.64C328.32 124 329.024 123.104 329.472 121.952C329.984 120.736 330.24 119.392 330.24 117.92C330.24 116.448 329.984 115.168 329.472 114.08C329.024 112.992 328.32 112.16 327.36 111.584C326.464 110.944 325.344 110.624 324 110.624H316.224V125.6ZM319.392 130.4H333.984L345.984 161.6V164H330.144L319.392 130.4ZM397.848 96.8V110.816H385.752V164H370.584V110.816H358.104V96.8H397.848Z" fill="white"/>
</g>
<path d="M175.039 156.224L178.469 158.282L178.479 158.265L178.489 158.249L175.039 156.224ZM167.839 162.848L166.05 159.27L166.035 159.278L166.02 159.286L167.839 162.848ZM148.831 164L149.93 160.154L149.899 160.145L149.868 160.137L148.831 164ZM142.015 161.408L140.133 164.937V164.937L142.015 161.408ZM137.791 158.816H133.791V160.76L135.32 161.961L137.791 158.816ZM137.791 143.936V139.936H133.791V143.936H137.791ZM139.711 143.936L142.447 141.018L141.293 139.936H139.711V143.936ZM147.199 149.024L145.41 152.602L145.442 152.617L145.474 152.633L147.199 149.024ZM158.815 150.56L160.301 154.274L160.36 154.25L160.419 154.225L158.815 150.56ZM161.215 148.736L158.015 146.336V146.336L161.215 148.736ZM160.447 142.016L157.619 144.844L157.662 144.887L157.706 144.929L160.447 142.016ZM155.551 138.56L157.536 135.087V135.087L155.551 138.56ZM148.831 134.72L146.823 138.179L146.835 138.186L146.847 138.193L148.831 134.72ZM142.975 130.592L140.415 133.665V133.665L142.975 130.592ZM138.175 124.544L134.598 126.333L134.616 126.37L134.636 126.407L138.175 124.544ZM139.039 104.672L135.623 102.592V102.592L139.039 104.672ZM146.143 98.048L147.932 101.626L147.947 101.618L147.962 101.61L146.143 98.048ZM163.711 96.608L162.741 100.489L162.792 100.501L162.844 100.513L163.711 96.608ZM169.951 98.816L168.114 102.369L168.186 102.406L168.26 102.441L169.951 98.816ZM174.751 102.08H178.751V100.423L177.58 99.2516L174.751 102.08ZM174.751 116.96V120.96H178.751V116.96H174.751ZM172.831 116.96L169.919 119.701L171.103 120.96H172.831V116.96ZM165.631 111.776L163.842 115.354L163.893 115.379L163.944 115.403L165.631 111.776ZM153.535 111.008L155.842 114.276L155.86 114.263L155.877 114.251L153.535 111.008ZM154.111 118.688L156.659 115.604L156.659 115.604L154.111 118.688ZM160.159 122.816L162.245 119.403L162.231 119.394L162.217 119.386L160.159 122.816ZM167.071 127.04L169.173 123.637L169.165 123.632L169.157 123.627L167.071 127.04ZM172.639 131.648L169.65 134.305L169.702 134.364L169.756 134.42L172.639 131.648ZM176.287 137.6L172.525 138.959L172.548 139.022L172.573 139.086L176.287 137.6ZM177.631 145.568H173.631C173.631 149.171 172.886 151.99 171.59 154.199L175.039 156.224L178.489 158.249C180.649 154.57 181.631 150.285 181.631 145.568H177.631ZM175.039 156.224L171.609 154.166C170.282 156.378 168.458 158.066 166.05 159.27L167.839 162.848L169.628 166.426C173.364 164.558 176.341 161.83 178.469 158.282L175.039 156.224ZM167.839 162.848L166.02 159.286C163.657 160.492 160.842 161.152 157.471 161.152V165.152V169.152C161.909 169.152 166.005 168.276 169.658 166.41L167.839 162.848ZM157.471 165.152V161.152C154.735 161.152 152.228 160.81 149.93 160.154L148.831 164L147.732 167.846C150.811 168.726 154.064 169.152 157.471 169.152V165.152ZM148.831 164L149.868 160.137C147.468 159.493 145.493 158.729 143.898 157.879L142.015 161.408L140.133 164.937C142.378 166.135 144.946 167.099 147.795 167.863L148.831 164ZM142.015 161.408L143.898 157.879C142.034 156.885 140.876 156.153 140.263 155.671L137.791 158.816L135.32 161.961C136.499 162.887 138.156 163.883 140.133 164.937L142.015 161.408ZM137.791 158.816H141.791V143.936H137.791H133.791V158.816H137.791ZM137.791 143.936V147.936H139.711V143.936V139.936H137.791V143.936ZM139.711 143.936L136.976 146.854C139.349 149.08 142.179 150.986 145.41 152.602L147.199 149.024L148.988 145.446C146.332 144.118 144.169 142.632 142.447 141.018L139.711 143.936ZM147.199 149.024L145.474 152.633C148.813 154.23 152.157 155.136 155.455 155.136V151.136V147.136C153.633 147.136 151.474 146.634 148.925 145.415L147.199 149.024ZM155.455 151.136V155.136C157.127 155.136 158.771 154.886 160.301 154.274L158.815 150.56L157.33 146.846C156.94 147.002 156.344 147.136 155.455 147.136V151.136ZM158.815 150.56L160.419 154.225C161.97 153.546 163.362 152.541 164.415 151.136L161.215 148.736L158.015 146.336C157.917 146.467 157.708 146.678 157.212 146.895L158.815 150.56ZM161.215 148.736L164.415 151.136C165.546 149.628 166.079 147.876 166.079 146.048H162.079H158.079C158.079 146.268 158.036 146.308 158.015 146.336L161.215 148.736ZM162.079 146.048H166.079C166.079 143.42 165.176 140.973 163.189 139.103L160.447 142.016L157.706 144.929C157.895 145.107 158.079 145.348 158.079 146.048H162.079ZM160.447 142.016L163.276 139.188C161.877 137.789 159.884 136.429 157.536 135.087L155.551 138.56L153.567 142.033C155.698 143.251 156.969 144.195 157.619 144.844L160.447 142.016ZM155.551 138.56L157.536 135.087L150.816 131.247L148.831 134.72L146.847 138.193L153.567 142.033L155.551 138.56ZM148.831 134.72L150.84 131.261C149.067 130.231 147.298 128.988 145.536 127.519L142.975 130.592L140.415 133.665C142.492 135.396 144.628 136.905 146.823 138.179L148.831 134.72ZM142.975 130.592L145.536 127.519C144.057 126.286 142.775 124.696 141.715 122.681L138.175 124.544L134.636 126.407C136.135 129.256 138.054 131.698 140.415 133.665L142.975 130.592ZM138.175 124.544L141.753 122.755C140.889 121.026 140.351 118.673 140.351 115.52H136.351H132.351C132.351 119.535 133.03 123.198 134.598 126.333L138.175 124.544ZM136.351 115.52H140.351C140.351 111.788 141.129 108.933 142.456 106.752L139.039 104.672L135.623 102.592C133.366 106.299 132.351 110.676 132.351 115.52H136.351ZM139.039 104.672L142.456 106.752C143.876 104.418 145.693 102.745 147.932 101.626L146.143 98.048L144.354 94.4703C140.705 96.2949 137.786 99.0375 135.623 102.592L139.039 104.672ZM146.143 98.048L147.962 101.61C150.363 100.385 153.06 99.744 156.127 99.744V95.744V91.744C151.899 91.744 147.94 92.6393 144.324 94.4856L146.143 98.048ZM156.127 95.744V99.744C158.603 99.744 160.8 100.003 162.741 100.489L163.711 96.608L164.681 92.7274C162.015 92.0607 159.156 91.744 156.127 91.744V95.744ZM163.711 96.608L162.844 100.513C164.853 100.959 166.601 101.586 168.114 102.369L169.951 98.816L171.789 95.2631C169.59 94.1255 167.177 93.2807 164.579 92.7032L163.711 96.608ZM169.951 98.816L168.26 102.441C169.828 103.173 171.023 104.009 171.923 104.908L174.751 102.08L177.58 99.2516C175.919 97.591 173.915 96.2515 171.643 95.1913L169.951 98.816ZM174.751 102.08H170.751V116.96H174.751H178.751V102.08H174.751ZM174.751 116.96V112.96H172.831V116.96V120.96H174.751V116.96ZM172.831 116.96L175.744 114.219C173.342 111.666 170.524 109.64 167.318 108.149L165.631 111.776L163.944 115.403C166.243 116.472 168.225 117.902 169.919 119.701L172.831 116.96ZM165.631 111.776L167.42 108.198C164.258 106.617 160.993 105.76 157.663 105.76V109.76V113.76C159.582 113.76 161.629 114.247 163.842 115.354L165.631 111.776ZM157.663 109.76V105.76C155.333 105.76 153.112 106.38 151.193 107.765L153.535 111.008L155.877 114.251C156.263 113.972 156.794 113.76 157.663 113.76V109.76ZM153.535 111.008L151.229 107.74C148.904 109.381 147.903 111.858 147.903 114.464H151.903H155.903C155.903 114.167 155.955 114.099 155.928 114.156C155.916 114.182 155.895 114.216 155.869 114.247C155.843 114.277 155.829 114.285 155.842 114.276L153.535 111.008ZM151.903 114.464H147.903C147.903 117.491 149.369 119.959 151.564 121.772L154.111 118.688L156.659 115.604C155.91 114.985 155.903 114.637 155.903 114.464H151.903ZM154.111 118.688L151.564 121.772C153.251 123.165 155.454 124.657 158.101 126.246L160.159 122.816L162.217 119.386C159.745 117.903 157.916 116.643 156.659 115.604L154.111 118.688ZM160.159 122.816L158.074 126.229L164.986 130.453L167.071 127.04L169.157 123.627L162.245 119.403L160.159 122.816ZM167.071 127.04L164.969 130.443C166.85 131.604 168.398 132.897 169.65 134.305L172.639 131.648L175.629 128.991C173.809 126.943 171.645 125.164 169.173 123.637L167.071 127.04ZM172.639 131.648L169.756 134.42C170.944 135.656 171.872 137.149 172.525 138.959L176.287 137.6L180.05 136.241C179.039 133.443 177.535 130.968 175.523 128.876L172.639 131.648ZM176.287 137.6L172.573 139.086C173.237 140.743 173.631 142.872 173.631 145.568H177.631H181.631C181.631 142.12 181.13 138.937 180.001 136.114L176.287 137.6ZM228.048 96.8H232.048V92.8H228.048V96.8ZM228.048 110.816V114.816H232.048V110.816H228.048ZM215.952 110.816V106.816H211.952V110.816H215.952ZM215.952 164V168H219.952V164H215.952ZM200.784 164H196.784V168H200.784V164ZM200.784 110.816H204.784V106.816H200.784V110.816ZM188.304 110.816H184.304V114.816H188.304V110.816ZM188.304 96.8V92.8H184.304V96.8H188.304ZM228.048 96.8H224.048V110.816H228.048H232.048V96.8H228.048ZM228.048 110.816V106.816H215.952V110.816V114.816H228.048V110.816ZM215.952 110.816H211.952V164H215.952H219.952V110.816H215.952ZM215.952 164V160H200.784V164V168H215.952V164ZM200.784 164H204.784V110.816H200.784H196.784V164H200.784ZM200.784 110.816V106.816H188.304V110.816V114.816H200.784V110.816ZM188.304 110.816H192.304V96.8H188.304H184.304V110.816H188.304ZM188.304 96.8V100.8H228.048V96.8V92.8H188.304V96.8ZM234.268 164H230.268V168H234.268V164ZM234.268 161.6L230.35 160.793L230.268 161.192V161.6H234.268ZM247.612 96.8L247.627 92.8L244.354 92.7877L243.694 95.9932L247.612 96.8ZM273.148 96.896L277.065 96.0881L276.409 92.9082L273.163 92.896L273.148 96.896ZM286.492 161.6H290.492V161.192L290.409 160.792L286.492 161.6ZM286.492 164V168H290.492V164H286.492ZM270.652 164L266.7 164.621L267.231 168H270.652V164ZM268.252 148.736L272.203 148.115L271.672 144.736H268.252V148.736ZM252.508 148.736V144.736H249.087L248.556 148.115L252.508 148.736ZM250.108 164V168H253.528L254.059 164.621L250.108 164ZM254.524 135.488L250.573 134.863L249.842 139.488H254.524V135.488ZM266.236 135.488V139.488H270.918L270.187 134.863L266.236 135.488ZM262.396 111.2L266.347 110.575L265.813 107.2H262.396V111.2ZM258.364 111.2V107.2H254.946L254.413 110.575L258.364 111.2ZM234.268 164H238.268V161.6H234.268H230.268V164H234.268ZM234.268 161.6L238.185 162.407L251.529 97.6068L247.612 96.8L243.694 95.9932L230.35 160.793L234.268 161.6ZM247.612 96.8L247.597 100.8L273.133 100.896L273.148 96.896L273.163 92.896L247.627 92.8L247.612 96.8ZM273.148 96.896L269.23 97.7039L282.574 162.408L286.492 161.6L290.409 160.792L277.065 96.0881L273.148 96.896ZM286.492 161.6H282.492V164H286.492H290.492V161.6H286.492ZM286.492 164V160H270.652V164V168H286.492V164ZM270.652 164L274.603 163.379L272.203 148.115L268.252 148.736L264.3 149.357L266.7 164.621L270.652 164ZM268.252 148.736V144.736H252.508V148.736V152.736H268.252V148.736ZM252.508 148.736L248.556 148.115L246.156 163.379L250.108 164L254.059 164.621L256.459 149.357L252.508 148.736ZM250.108 164V160H234.268V164V168H250.108V164ZM254.524 135.488V139.488H266.236V135.488V131.488H254.524V135.488ZM266.236 135.488L270.187 134.863L266.347 110.575L262.396 111.2L258.445 111.825L262.285 136.113L266.236 135.488ZM262.396 111.2V107.2H258.364V111.2V115.2H262.396V111.2ZM258.364 111.2L254.413 110.575L250.573 134.863L254.524 135.488L258.475 136.113L262.315 111.825L258.364 111.2ZM301.056 96.8V92.8H297.067L297.056 96.7886L301.056 96.8ZM316.224 96.8H320.224V92.8H316.224V96.8ZM316.224 164V168H320.224V164H316.224ZM300.864 164L296.864 163.989L296.852 168H300.864V164ZM336.288 99.104L334.469 102.666L334.499 102.682L334.53 102.697L336.288 99.104ZM343.392 105.92L339.906 107.881L339.914 107.897L339.923 107.912L343.392 105.92ZM343.104 129.152L339.692 127.063V127.063L343.104 129.152ZM335.616 136.256L337.435 139.818L337.449 139.811L337.464 139.804L335.616 136.256ZM308.448 138.56H304.448V142.56H308.448V138.56ZM308.448 96.8V92.8H304.448V96.8H308.448ZM316.224 125.6H312.224V129.6H316.224V125.6ZM327.36 124.64L325.141 121.312L325.087 121.348L325.035 121.385L327.36 124.64ZM329.472 121.952L325.785 120.4L325.764 120.451L325.744 120.502L329.472 121.952ZM329.472 114.08L325.773 115.603L325.811 115.694L325.853 115.783L329.472 114.08ZM327.36 111.584L325.035 114.839L325.165 114.932L325.302 115.014L327.36 111.584ZM316.224 110.624V106.624H312.224V110.624H316.224ZM319.392 130.4V126.4H313.912L315.582 131.619L319.392 130.4ZM333.984 130.4L337.717 128.964L336.731 126.4H333.984V130.4ZM345.984 161.6H349.984V160.857L349.717 160.164L345.984 161.6ZM345.984 164V168H349.984V164H345.984ZM330.144 164L326.334 165.219L327.224 168H330.144V164ZM301.056 96.8V100.8H316.224V96.8V92.8H301.056V96.8ZM316.224 96.8H312.224V164H316.224H320.224V96.8H316.224ZM316.224 164V160H300.864V164V168H316.224V164ZM300.864 164L304.864 164.011L305.056 96.8114L301.056 96.8L297.056 96.7886L296.864 163.989L300.864 164ZM326.016 96.8V100.8C329.311 100.8 332.097 101.455 334.469 102.666L336.288 99.104L338.107 95.5416C334.463 93.6807 330.401 92.8 326.016 92.8V96.8ZM336.288 99.104L334.53 102.697C336.77 103.793 338.553 105.476 339.906 107.881L343.392 105.92L346.878 103.959C344.775 100.22 341.822 97.3587 338.046 95.5111L336.288 99.104ZM343.392 105.92L339.923 107.912C341.207 110.147 341.984 113.213 341.984 117.344H345.984H349.984C349.984 112.259 349.033 107.709 346.86 103.927L343.392 105.92ZM345.984 117.344H341.984C341.984 121.552 341.131 124.713 339.692 127.063L343.104 129.152L346.515 131.241C348.916 127.319 349.984 122.608 349.984 117.344H345.984ZM343.104 129.152L339.692 127.063C338.127 129.62 336.156 131.465 333.768 132.708L335.616 136.256L337.464 139.804C341.22 137.847 344.24 134.956 346.515 131.241L343.104 129.152ZM335.616 136.256L333.797 132.694C331.355 133.941 328.778 134.56 326.016 134.56V138.56V142.56C330.037 142.56 333.861 141.643 337.435 139.818L335.616 136.256ZM326.016 138.56V134.56H308.448V138.56V142.56H326.016V138.56ZM308.448 138.56H312.448V96.8H308.448H304.448V138.56H308.448ZM308.448 96.8V100.8H326.016V96.8V92.8H308.448V96.8ZM316.224 125.6V129.6H324V125.6V121.6H316.224V125.6ZM324 125.6V129.6C325.99 129.6 327.973 129.118 329.685 127.895L327.36 124.64L325.035 121.385C324.955 121.442 324.697 121.6 324 121.6V125.6ZM327.36 124.64L329.579 127.968C331.273 126.839 332.476 125.263 333.2 123.402L329.472 121.952L325.744 120.502C325.571 120.945 325.367 121.161 325.141 121.312L327.36 124.64ZM329.472 121.952L333.158 123.504C333.9 121.743 334.24 119.863 334.24 117.92H330.24H326.24C326.24 118.921 326.068 119.729 325.785 120.4L329.472 121.952ZM330.24 117.92H334.24C334.24 115.988 333.904 114.103 333.091 112.377L329.472 114.08L325.853 115.783C326.064 116.233 326.24 116.908 326.24 117.92H330.24ZM329.472 114.08L333.171 112.557C332.413 110.717 331.155 109.196 329.418 108.154L327.36 111.584L325.302 115.014C325.485 115.124 325.635 115.267 325.773 115.603L329.472 114.08ZM327.36 111.584L329.685 108.329C327.973 107.106 325.99 106.624 324 106.624V110.624V114.624C324.697 114.624 324.955 114.782 325.035 114.839L327.36 111.584ZM324 110.624V106.624H316.224V110.624V114.624H324V110.624ZM316.224 110.624H312.224V125.6H316.224H320.224V110.624H316.224ZM319.392 130.4V134.4H333.984V130.4V126.4H319.392V130.4ZM333.984 130.4L330.25 131.836L342.25 163.036L345.984 161.6L349.717 160.164L337.717 128.964L333.984 130.4ZM345.984 161.6H341.984V164H345.984H349.984V161.6H345.984ZM345.984 164V160H330.144V164V168H345.984V164ZM330.144 164L333.954 162.781L323.202 129.181L319.392 130.4L315.582 131.619L326.334 165.219L330.144 164ZM397.848 96.8H401.848V92.8H397.848V96.8ZM397.848 110.816V114.816H401.848V110.816H397.848ZM385.752 110.816V106.816H381.752V110.816H385.752ZM385.752 164V168H389.752V164H385.752ZM370.584 164H366.584V168H370.584V164ZM370.584 110.816H374.584V106.816H370.584V110.816ZM358.104 110.816H354.104V114.816H358.104V110.816ZM358.104 96.8V92.8H354.104V96.8H358.104ZM397.848 96.8H393.848V110.816H397.848H401.848V96.8H397.848ZM397.848 110.816V106.816H385.752V110.816V114.816H397.848V110.816ZM385.752 110.816H381.752V164H385.752H389.752V110.816H385.752ZM385.752 164V160H370.584V164V168H385.752V164ZM370.584 164H374.584V110.816H370.584H366.584V164H370.584ZM370.584 110.816V106.816H358.104V110.816V114.816H370.584V110.816ZM358.104 110.816H362.104V96.8H358.104H354.104V110.816H358.104ZM358.104 96.8V100.8H397.848V96.8V92.8H358.104V96.8Z" fill="#14913E" mask="url(#path-3-outside-2_22_36)"/>
</g>
<defs>
<filter id="filter0_d_22_36" x="6.1001" y="0" width="521" height="209.903" filterUnits="userSpaceOnUse" color-interpolation-filters="sRGB">
<feFlood flood-opacity="0" result="BackgroundImageFix"/>
<feColorMatrix in="SourceAlpha" type="matrix" values="0 0 0 0 0 0 0 0 0 0 0 0 0 0 0 0 0 0 127 0" result="hardAlpha"/>
<feOffset dy="4"/>
<feGaussianBlur stdDeviation="2"/>
<feComposite in2="hardAlpha" operator="out"/>
<feColorMatrix type="matrix" values="0 0 0 0 0 0 0 0 0 0 0 0 0 0 0 0 0 0 0.25 0"/>
<feBlend mode="normal" in2="BackgroundImageFix" result="effect1_dropShadow_22_36"/>
<feBlend mode="normal" in="SourceGraphic" in2="effect1_dropShadow_22_36" result="shape"/>
</filter>
<filter id="filter1_d_22_36" x="9.72748e-05" y="0" width="533.2" height="227.003" filterUnits="userSpaceOnUse" color-interpolation-filters="sRGB">
<feFlood flood-opacity="0" result="BackgroundImageFix"/>
<feColorMatrix in="SourceAlpha" type="matrix" values="0 0 0 0 0 0 0 0 0 0 0 0 0 0 0 0 0 0 127 0" result="hardAlpha"/>
<feOffset dy="15"/>
<feGaussianBlur stdDeviation="5.05"/>
<feComposite in2="hardAlpha" operator="out"/>
<feColorMatrix type="matrix" values="0 0 0 0 0 0 0 0 0 0 0 0 0 0 0 0 0 0 0.25 0"/>
<feBlend mode="normal" in2="BackgroundImageFix" result="effect1_dropShadow_22_36"/>
<feBlend mode="normal" in="SourceGraphic" in2="effect1_dropShadow_22_36" result="shape"/>
</filter>
<filter id="filter2_i_22_36" x="132.351" y="84.744" width="276.497" height="84.408" filterUnits="userSpaceOnUse" color-interpolation-filters="sRGB">
<feFlood flood-opacity="0" result="BackgroundImageFix"/>
<feBlend mode="normal" in="SourceGraphic" in2="BackgroundImageFix" result="shape"/>
<feColorMatrix in="SourceAlpha" type="matrix" values="0 0 0 0 0 0 0 0 0 0 0 0 0 0 0 0 0 0 127 0" result="hardAlpha"/>
<feOffset dx="10" dy="-8"/>
<feGaussianBlur stdDeviation="3.5"/>
<feComposite in2="hardAlpha" operator="arithmetic" k2="-1" k3="1"/>
<feColorMatrix type="matrix" values="0 0 0 0 0 0 0 0 0 0 0 0 0 0 0 0 0 0 0.15 0"/>
<feBlend mode="normal" in2="shape" result="effect1_innerShadow_22_36"/>
</filter>
</defs>
</svg>
