<svg width="533" height="223" viewBox="0 0 533 223" fill="none" xmlns="http://www.w3.org/2000/svg">
<g filter="url(#filter0_d_37_95)">
<g filter="url(#filter1_d_37_95)">
<mask id="path-1-inside-1_37_95" fill="white">
<path d="M98.1802 0C106.349 2.85345e-05 112.971 6.62215 112.971 14.791V44.9863H172.301V14.791C172.301 6.6222 178.923 9.09869e-05 187.092 0H222.75C230.919 0 237.542 6.62214 237.542 14.791V44.9863H296.333V14.791C296.333 6.62223 302.955 0.000140464 311.124 0H346.782C354.951 0 361.574 6.62214 361.574 14.791V44.9863H420.924V14.791C420.924 6.6223 427.547 0.000255909 435.715 0H471.375C479.543 0.000205828 486.165 6.62226 486.166 14.791V44.9863H522.959V198.062H9.95947V44.9863H47.731V14.791C47.7311 6.62214 54.3531 0 62.522 0H98.1802Z"/>
</mask>
<path d="M98.1802 0C106.349 2.85345e-05 112.971 6.62215 112.971 14.791V44.9863H172.301V14.791C172.301 6.6222 178.923 9.09869e-05 187.092 0H222.75C230.919 0 237.542 6.62214 237.542 14.791V44.9863H296.333V14.791C296.333 6.62223 302.955 0.000140464 311.124 0H346.782C354.951 0 361.574 6.62214 361.574 14.791V44.9863H420.924V14.791C420.924 6.6223 427.547 0.000255909 435.715 0H471.375C479.543 0.000205828 486.165 6.62226 486.166 14.791V44.9863H522.959V198.062H9.95947V44.9863H47.731V14.791C47.7311 6.62214 54.3531 0 62.522 0H98.1802Z" fill="#3A8051"/>
<path d="M98.1802 0L98.1802 -4.93044H98.1802V0ZM112.971 14.791H117.902V14.7909L112.971 14.791ZM112.971 44.9863H108.041V49.9168H112.971V44.9863ZM172.301 44.9863V49.9168H177.232V44.9863H172.301ZM172.301 14.791L167.371 14.7909V14.791H172.301ZM187.092 0V-4.93044H187.092L187.092 0ZM237.542 14.791H242.473V14.7909L237.542 14.791ZM237.542 44.9863H232.612V49.9168H237.542V44.9863ZM296.333 44.9863V49.9168H301.263V44.9863H296.333ZM296.333 14.791L291.402 14.7909V14.791H296.333ZM311.124 0V-4.93044H311.123L311.124 0ZM361.574 14.791H366.504L366.504 14.7909L361.574 14.791ZM361.574 44.9863H356.643V49.9168H361.574V44.9863ZM420.924 44.9863V49.9168H425.855V44.9863H420.924ZM420.924 14.791L415.994 14.7909V14.791H420.924ZM435.715 0V-4.93044H435.715L435.715 0ZM471.375 0L471.375 -4.93044H471.375V0ZM486.166 14.791H491.096L491.096 14.7909L486.166 14.791ZM486.166 44.9863H481.235V49.9168H486.166V44.9863ZM522.959 44.9863H527.89V40.0559H522.959V44.9863ZM522.959 198.062V202.993H527.89V198.062H522.959ZM9.95947 198.062H5.02904V202.993H9.95947V198.062ZM9.95947 44.9863V40.0559H5.02904V44.9863H9.95947ZM47.731 44.9863V49.9168H52.6614V44.9863H47.731ZM47.731 14.791L42.8005 14.7909V14.791H47.731ZM98.1802 0L98.1802 4.93044C103.626 4.93045 108.041 9.3451 108.041 14.7911L112.971 14.791L117.902 14.7909C117.901 3.89921 109.072 -4.9304 98.1802 -4.93044L98.1802 0ZM112.971 14.791H108.041V44.9863H112.971H117.902V14.791H112.971ZM112.971 44.9863V49.9168H172.301V44.9863V40.0559H112.971V44.9863ZM172.301 44.9863H177.232V14.791H172.301H167.371V44.9863H172.301ZM172.301 14.791L177.232 14.7911C177.232 9.34518 181.647 4.9305 187.092 4.93044L187.092 0L187.092 -4.93044C176.2 -4.93031 167.371 3.89922 167.371 14.7909L172.301 14.791ZM187.092 0V4.93044H222.75V0V-4.93044H187.092V0ZM222.75 0V4.93044C228.197 4.93044 232.612 9.34549 232.612 14.7911L237.542 14.791L242.473 14.7909C242.473 3.89878 233.642 -4.93044 222.75 -4.93044V0ZM237.542 14.791H232.612V44.9863H237.542H242.473V14.791H237.542ZM237.542 44.9863V49.9168H296.333V44.9863V40.0559H237.542V44.9863ZM296.333 44.9863H301.263V14.791H296.333H291.402V44.9863H296.333ZM296.333 14.791L301.263 14.7911C301.263 9.34524 305.678 4.93053 311.124 4.93044L311.124 0L311.123 -4.93044C300.232 -4.93025 291.402 3.89922 291.402 14.7909L296.333 14.791ZM311.124 0V4.93044H346.782V0V-4.93044H311.124V0ZM346.782 0V4.93044C352.228 4.93044 356.643 9.34549 356.643 14.7911L361.574 14.791L366.504 14.7909C366.504 3.89878 357.673 -4.93044 346.782 -4.93044V0ZM361.574 14.791H356.643V44.9863H361.574H366.504V14.791H361.574ZM361.574 44.9863V49.9168H420.924V44.9863V40.0559H361.574V44.9863ZM420.924 44.9863H425.855V14.791H420.924H415.994V44.9863H420.924ZM420.924 14.791L425.855 14.7911C425.855 9.34538 430.27 4.93061 435.715 4.93044L435.715 0L435.715 -4.93044C424.824 -4.93009 415.994 3.89922 415.994 14.7909L420.924 14.791ZM435.715 0V4.93044H471.375V0V-4.93044H435.715V0ZM471.375 0L471.374 4.93044C476.82 4.93057 481.235 9.34532 481.235 14.7911L486.166 14.791L491.096 14.7909C491.096 3.89921 482.266 -4.93016 471.375 -4.93044L471.375 0ZM486.166 14.791H481.235V44.9863H486.166H491.096V14.791H486.166ZM486.166 44.9863V49.9168H522.959V44.9863V40.0559H486.166V44.9863ZM522.959 44.9863H518.029V198.062H522.959H527.89V44.9863H522.959ZM522.959 198.062V193.132H9.95947V198.062V202.993H522.959V198.062ZM9.95947 198.062H14.8899V44.9863H9.95947H5.02904V198.062H9.95947ZM9.95947 44.9863V49.9168H47.731V44.9863V40.0559H9.95947V44.9863ZM47.731 44.9863H52.6614V14.791H47.731H42.8005V44.9863H47.731ZM47.731 14.791L52.6614 14.7911C52.6615 9.34507 57.0762 4.93044 62.522 4.93044V0V-4.93044C51.63 -4.93044 42.8007 3.89921 42.8005 14.7909L47.731 14.791ZM62.522 0V4.93044H98.1802V0V-4.93044H62.522V0Z" fill="#373737" mask="url(#path-1-inside-1_37_95)"/>
</g>
<mask id="path-3-outside-2_37_95" maskUnits="userSpaceOnUse" x="133.96" y="88.7635" width="266" height="78" fill="black">
<rect fill="white" x="133.96" y="88.7635" width="266" height="78"/>
<path d="M178.729 142.588C178.729 146.69 177.877 150.193 176.173 153.096C174.469 155.936 172.103 158.113 169.073 159.628C166.107 161.142 162.699 161.9 158.85 161.9C155.82 161.9 152.98 161.521 150.33 160.764C147.742 160.069 145.502 159.217 143.609 158.208C141.715 157.198 140.327 156.346 139.443 155.652V140.979H141.337C143.356 142.872 145.817 144.544 148.72 145.996C151.623 147.384 154.337 148.079 156.862 148.079C158.124 148.079 159.228 147.889 160.175 147.511C161.185 147.069 161.973 146.469 162.541 145.712C163.109 144.955 163.393 144.071 163.393 143.061C163.393 141.42 162.857 140.095 161.784 139.085C160.774 138.076 159.165 136.94 156.956 135.677L150.33 131.891C148.373 130.755 146.449 129.398 144.555 127.82C142.662 126.243 141.084 124.255 139.822 121.856C138.623 119.458 138.023 116.492 138.023 112.958C138.023 108.73 138.907 105.164 140.674 102.261C142.441 99.3579 144.776 97.1807 147.679 95.7291C150.645 94.2145 153.927 93.4572 157.524 93.4572C160.238 93.4572 162.731 93.7412 165.003 94.3092C167.275 94.814 169.326 95.5398 171.156 96.4865C173.049 97.37 174.627 98.4428 175.889 99.705V114.378H173.996C171.976 112.232 169.61 110.528 166.896 109.266C164.245 107.941 161.626 107.278 159.039 107.278C157.461 107.278 156.104 107.688 154.968 108.509C153.895 109.266 153.359 110.402 153.359 111.917C153.359 113.494 154.085 114.883 155.536 116.082C156.988 117.281 158.976 118.638 161.5 120.153L168.316 124.318C170.462 125.643 172.292 127.158 173.807 128.862C175.384 130.503 176.583 132.459 177.404 134.731C178.287 136.94 178.729 139.559 178.729 142.588ZM228.444 94.4985V108.319H216.516V160.764H201.559V108.319H189.253V94.4985H228.444ZM234.577 160.764V158.397L247.736 94.4985L272.916 94.5932L286.075 158.397V160.764H270.455L268.089 145.712H252.564L250.197 160.764H234.577ZM254.552 132.648H266.101L262.314 108.698H258.338L254.552 132.648ZM300.436 94.4985H315.393V160.764H300.247L300.436 94.4985ZM325.049 94.4985C328.836 94.4985 332.212 95.2558 335.178 96.7704C338.144 98.222 340.479 100.462 342.183 103.492C343.887 106.458 344.739 110.213 344.739 114.757C344.739 119.427 343.793 123.308 341.899 126.4C340.006 129.493 337.545 131.828 334.516 133.406C331.549 134.92 328.394 135.677 325.049 135.677H307.726V94.4985H325.049ZM315.393 122.898H323.061C324.386 122.898 325.491 122.582 326.374 121.951C327.321 121.32 328.015 120.437 328.457 119.301C328.962 118.101 329.214 116.776 329.214 115.325C329.214 113.873 328.962 112.611 328.457 111.538C328.015 110.465 327.321 109.645 326.374 109.077C325.491 108.446 324.386 108.13 323.061 108.13H315.393V122.898ZM318.517 127.631H332.906L344.739 158.397V160.764H329.12L318.517 127.631ZM395.882 94.4985V108.319H383.954V160.764H368.997V108.319H356.691V94.4985H395.882Z"/>
</mask>
<g filter="url(#filter2_i_37_95)">
<path d="M178.729 142.588C178.729 146.69 177.877 150.193 176.173 153.096C174.469 155.936 172.103 158.113 169.073 159.628C166.107 161.142 162.699 161.9 158.85 161.9C155.82 161.9 152.98 161.521 150.33 160.764C147.742 160.069 145.502 159.217 143.609 158.208C141.715 157.198 140.327 156.346 139.443 155.652V140.979H141.337C143.356 142.872 145.817 144.544 148.72 145.996C151.623 147.384 154.337 148.079 156.862 148.079C158.124 148.079 159.228 147.889 160.175 147.511C161.185 147.069 161.973 146.469 162.541 145.712C163.109 144.955 163.393 144.071 163.393 143.061C163.393 141.42 162.857 140.095 161.784 139.085C160.774 138.076 159.165 136.94 156.956 135.677L150.33 131.891C148.373 130.755 146.449 129.398 144.555 127.82C142.662 126.243 141.084 124.255 139.822 121.856C138.623 119.458 138.023 116.492 138.023 112.958C138.023 108.73 138.907 105.164 140.674 102.261C142.441 99.3579 144.776 97.1807 147.679 95.7291C150.645 94.2145 153.927 93.4572 157.524 93.4572C160.238 93.4572 162.731 93.7412 165.003 94.3092C167.275 94.814 169.326 95.5398 171.156 96.4865C173.049 97.37 174.627 98.4428 175.889 99.705V114.378H173.996C171.976 112.232 169.61 110.528 166.896 109.266C164.245 107.941 161.626 107.278 159.039 107.278C157.461 107.278 156.104 107.688 154.968 108.509C153.895 109.266 153.359 110.402 153.359 111.917C153.359 113.494 154.085 114.883 155.536 116.082C156.988 117.281 158.976 118.638 161.5 120.153L168.316 124.318C170.462 125.643 172.292 127.158 173.807 128.862C175.384 130.503 176.583 132.459 177.404 134.731C178.287 136.94 178.729 139.559 178.729 142.588ZM228.444 94.4985V108.319H216.516V160.764H201.559V108.319H189.253V94.4985H228.444ZM234.577 160.764V158.397L247.736 94.4985L272.916 94.5932L286.075 158.397V160.764H270.455L268.089 145.712H252.564L250.197 160.764H234.577ZM254.552 132.648H266.101L262.314 108.698H258.338L254.552 132.648ZM300.436 94.4985H315.393V160.764H300.247L300.436 94.4985ZM325.049 94.4985C328.836 94.4985 332.212 95.2558 335.178 96.7704C338.144 98.222 340.479 100.462 342.183 103.492C343.887 106.458 344.739 110.213 344.739 114.757C344.739 119.427 343.793 123.308 341.899 126.4C340.006 129.493 337.545 131.828 334.516 133.406C331.549 134.92 328.394 135.677 325.049 135.677H307.726V94.4985H325.049ZM315.393 122.898H323.061C324.386 122.898 325.491 122.582 326.374 121.951C327.321 121.32 328.015 120.437 328.457 119.301C328.962 118.101 329.214 116.776 329.214 115.325C329.214 113.873 328.962 112.611 328.457 111.538C328.015 110.465 327.321 109.645 326.374 109.077C325.491 108.446 324.386 108.13 323.061 108.13H315.393V122.898ZM318.517 127.631H332.906L344.739 158.397V160.764H329.12L318.517 127.631ZM395.882 94.4985V108.319H383.954V160.764H368.997V108.319H356.691V94.4985H395.882Z" fill="white"/>
</g>
<path d="M176.173 153.096L179.555 155.125L179.565 155.109L179.575 155.092L176.173 153.096ZM169.073 159.628L167.309 156.1L167.294 156.107L167.279 156.115L169.073 159.628ZM150.33 160.764L151.413 156.971L151.383 156.962L151.352 156.954L150.33 160.764ZM143.609 158.208L141.752 161.688V161.688L143.609 158.208ZM139.443 155.652H135.499V157.569L137.006 158.753L139.443 155.652ZM139.443 140.979V137.034H135.499V140.979H139.443ZM141.337 140.979L144.034 138.101L142.896 137.034H141.337V140.979ZM148.72 145.996L146.956 149.524L146.987 149.539L147.019 149.554L148.72 145.996ZM160.175 147.511L161.64 151.173L161.698 151.149L161.756 151.124L160.175 147.511ZM162.541 145.712L159.386 143.345H159.386L162.541 145.712ZM161.784 139.085L158.995 141.874L159.037 141.917L159.081 141.958L161.784 139.085ZM156.956 135.677L158.913 132.253V132.253L156.956 135.677ZM150.33 131.891L148.349 135.302L148.361 135.309L148.373 135.316L150.33 131.891ZM144.555 127.82L142.03 130.85V130.85L144.555 127.82ZM139.822 121.856L136.294 123.62L136.312 123.657L136.332 123.694L139.822 121.856ZM140.674 102.261L137.305 100.21V100.21L140.674 102.261ZM147.679 95.7291L149.443 99.2571L149.458 99.2496L149.473 99.242L147.679 95.7291ZM165.003 94.3092L164.046 98.1358L164.096 98.1483L164.147 98.1596L165.003 94.3092ZM171.156 96.4865L169.344 99.9899L169.415 100.027L169.488 100.061L171.156 96.4865ZM175.889 99.705H179.833V98.0712L178.678 96.916L175.889 99.705ZM175.889 114.378V118.322H179.833V114.378H175.889ZM173.996 114.378L171.124 117.081L172.292 118.322H173.996V114.378ZM166.896 109.266L165.132 112.794L165.182 112.819L165.233 112.843L166.896 109.266ZM154.968 108.509L157.243 111.731L157.26 111.719L157.278 111.706L154.968 108.509ZM155.536 116.082L158.048 113.041H158.048L155.536 116.082ZM161.5 120.153L163.557 116.787L163.543 116.779L163.529 116.77L161.5 120.153ZM168.316 124.318L170.389 120.962L170.381 120.957L170.373 120.952L168.316 124.318ZM173.807 128.862L170.858 131.482L170.91 131.54L170.963 131.596L173.807 128.862ZM177.404 134.731L173.694 136.071L173.717 136.134L173.742 136.196L177.404 134.731ZM178.729 142.588H174.785C174.785 146.141 174.05 148.921 172.771 151.099L176.173 153.096L179.575 155.092C181.704 151.464 182.673 147.239 182.673 142.588H178.729ZM176.173 153.096L172.791 151.066C171.482 153.248 169.684 154.912 167.309 156.1L169.073 159.628L170.837 163.156C174.521 161.313 177.456 158.623 179.555 155.125L176.173 153.096ZM169.073 159.628L167.279 156.115C164.95 157.304 162.173 157.955 158.85 157.955V161.9V165.844C163.225 165.844 167.265 164.98 170.867 163.14L169.073 159.628ZM158.85 161.9V157.955C156.151 157.955 153.679 157.618 151.413 156.971L150.33 160.764L149.246 164.556C152.282 165.424 155.49 165.844 158.85 165.844V161.9ZM150.33 160.764L151.352 156.954C148.986 156.319 147.038 155.566 145.465 154.727L143.609 158.208L141.752 161.688C143.966 162.869 146.499 163.82 149.308 164.573L150.33 160.764ZM143.609 158.208L145.465 154.727C143.627 153.747 142.485 153.025 141.88 152.55L139.443 155.652L137.006 158.753C138.169 159.666 139.803 160.648 141.752 161.688L143.609 158.208ZM139.443 155.652H143.388V140.979H139.443H135.499V155.652H139.443ZM139.443 140.979V144.923H141.337V140.979V137.034H139.443V140.979ZM141.337 140.979L138.639 143.856C140.98 146.051 143.77 147.93 146.956 149.524L148.72 145.996L150.484 142.468C147.865 141.158 145.733 139.693 144.034 138.101L141.337 140.979ZM148.72 145.996L147.019 149.554C150.312 151.129 153.609 152.023 156.862 152.023V148.079V144.134C155.065 144.134 152.935 143.639 150.422 142.438L148.72 145.996ZM156.862 148.079V152.023C158.51 152.023 160.131 151.776 161.64 151.173L160.175 147.511L158.71 143.848C158.326 144.002 157.737 144.134 156.862 144.134V148.079ZM160.175 147.511L161.756 151.124C163.286 150.455 164.658 149.464 165.697 148.079L162.541 145.712L159.386 143.345C159.289 143.474 159.083 143.683 158.594 143.897L160.175 147.511ZM162.541 145.712L165.697 148.079C166.812 146.592 167.338 144.864 167.338 143.061H163.393H159.449C159.449 143.278 159.407 143.318 159.386 143.345L162.541 145.712ZM163.393 143.061H167.338C167.338 140.47 166.447 138.057 164.487 136.213L161.784 139.085L159.081 141.958C159.267 142.133 159.449 142.371 159.449 143.061H163.393ZM161.784 139.085L164.573 136.296C163.194 134.917 161.229 133.576 158.913 132.253L156.956 135.677L154.999 139.102C157.101 140.303 158.354 141.234 158.995 141.874L161.784 139.085ZM156.956 135.677L158.913 132.253L152.287 128.466L150.33 131.891L148.373 135.316L154.999 139.102L156.956 135.677ZM150.33 131.891L152.31 128.48C150.562 127.465 148.818 126.238 147.08 124.79L144.555 127.82L142.03 130.85C144.079 132.558 146.185 134.045 148.349 135.302L150.33 131.891ZM144.555 127.82L147.08 124.79C145.622 123.575 144.358 122.006 143.312 120.019L139.822 121.856L136.332 123.694C137.81 126.503 139.702 128.911 142.03 130.85L144.555 127.82ZM139.822 121.856L143.35 120.093C142.498 118.388 141.968 116.067 141.968 112.958H138.023H134.079C134.079 116.918 134.748 120.529 136.294 123.62L139.822 121.856ZM138.023 112.958H141.968C141.968 109.278 142.734 106.462 144.043 104.312L140.674 102.261L137.305 100.21C135.08 103.866 134.079 108.182 134.079 112.958H138.023ZM140.674 102.261L144.043 104.312C145.444 102.011 147.235 100.361 149.443 99.2571L147.679 95.7291L145.915 92.2012C142.317 94.0004 139.438 96.7049 137.305 100.21L140.674 102.261ZM147.679 95.7291L149.473 99.242C151.84 98.0333 154.5 97.4015 157.524 97.4015V93.4572V89.5128C153.354 89.5128 149.451 90.3957 145.885 92.2163L147.679 95.7291ZM157.524 93.4572V97.4015C159.965 97.4015 162.132 97.6572 164.046 98.1358L165.003 94.3092L165.959 90.4826C163.33 89.8252 160.511 89.5128 157.524 89.5128V93.4572ZM165.003 94.3092L164.147 98.1596C166.129 98.6 167.852 99.2184 169.344 99.9899L171.156 96.4865L172.968 92.983C170.799 91.8612 168.421 91.0281 165.858 90.4587L165.003 94.3092ZM171.156 96.4865L169.488 100.061C171.034 100.782 172.213 101.607 173.1 102.494L175.889 99.705L178.678 96.916C177.041 95.2785 175.064 93.9576 172.824 92.9121L171.156 96.4865ZM175.889 99.705H171.945V114.378H175.889H179.833V99.705H175.889ZM175.889 114.378V110.434H173.996V114.378V118.322H175.889V114.378ZM173.996 114.378L176.868 111.675C174.499 109.158 171.721 107.16 168.559 105.69L166.896 109.266L165.233 112.843C167.499 113.897 169.453 115.307 171.124 117.081L173.996 114.378ZM166.896 109.266L168.66 105.738C165.542 104.179 162.322 103.334 159.039 103.334V107.278V111.223C160.931 111.223 162.949 111.703 165.132 112.794L166.896 109.266ZM159.039 107.278V103.334C156.741 103.334 154.55 103.945 152.659 105.311L154.968 108.509L157.278 111.706C157.658 111.432 158.181 111.223 159.039 111.223V107.278ZM154.968 108.509L152.694 105.286C150.402 106.904 149.415 109.347 149.415 111.917H153.359H157.303C157.303 111.624 157.354 111.557 157.328 111.613C157.316 111.639 157.295 111.672 157.27 111.702C157.244 111.732 157.23 111.74 157.243 111.731L154.968 108.509ZM153.359 111.917H149.415C149.415 114.902 150.86 117.335 153.024 119.123L155.536 116.082L158.048 113.041C157.31 112.431 157.303 112.087 157.303 111.917H153.359ZM155.536 116.082L153.024 119.123C154.688 120.497 156.86 121.968 159.471 123.535L161.5 120.153L163.529 116.77C161.091 115.307 159.288 114.065 158.048 113.041L155.536 116.082ZM161.5 120.153L159.443 123.518L166.259 127.683L168.316 124.318L170.373 120.952L163.557 116.787L161.5 120.153ZM168.316 124.318L166.243 127.674C168.097 128.819 169.624 130.093 170.858 131.482L173.807 128.862L176.755 126.241C174.96 124.222 172.826 122.467 170.389 120.962L168.316 124.318ZM173.807 128.862L170.963 131.596C172.134 132.813 173.05 134.287 173.694 136.071L177.404 134.731L181.114 133.391C180.117 130.631 178.634 128.192 176.65 126.128L173.807 128.862ZM177.404 134.731L173.742 136.196C174.395 137.83 174.785 139.929 174.785 142.588H178.729H182.673C182.673 139.188 182.179 136.049 181.066 133.266L177.404 134.731ZM228.444 94.4985H232.388V90.5542H228.444V94.4985ZM228.444 108.319V112.264H232.388V108.319H228.444ZM216.516 108.319V104.375H212.572V108.319H216.516ZM216.516 160.764V164.708H220.461V160.764H216.516ZM201.559 160.764H197.615V164.708H201.559V160.764ZM201.559 108.319H205.504V104.375H201.559V108.319ZM189.253 108.319H185.309V112.264H189.253V108.319ZM189.253 94.4985V90.5542H185.309V94.4985H189.253ZM228.444 94.4985H224.5V108.319H228.444H232.388V94.4985H228.444ZM228.444 108.319V104.375H216.516V108.319V112.264H228.444V108.319ZM216.516 108.319H212.572V160.764H216.516H220.461V108.319H216.516ZM216.516 160.764V156.819H201.559V160.764V164.708H216.516V160.764ZM201.559 160.764H205.504V108.319H201.559H197.615V160.764H201.559ZM201.559 108.319V104.375H189.253V108.319V112.264H201.559V108.319ZM189.253 108.319H193.197V94.4985H189.253H185.309V108.319H189.253ZM189.253 94.4985V98.4428H228.444V94.4985V90.5542H189.253V94.4985ZM234.577 160.764H230.633V164.708H234.577V160.764ZM234.577 158.397L230.714 157.601L230.633 157.995V158.397H234.577ZM247.736 94.4985L247.751 90.5542L244.523 90.542L243.872 93.7029L247.736 94.4985ZM272.916 94.5932L276.779 93.7965L276.133 90.6609L272.931 90.6488L272.916 94.5932ZM286.075 158.397H290.019V157.994L289.938 157.6L286.075 158.397ZM286.075 160.764V164.708H290.019V160.764H286.075ZM270.455 160.764L266.559 161.376L267.082 164.708H270.455V160.764ZM268.089 145.712L271.985 145.099L271.461 141.768H268.089V145.712ZM252.564 145.712V141.768H249.191L248.667 145.099L252.564 145.712ZM250.197 160.764V164.708H253.57L254.093 161.376L250.197 160.764ZM254.551 132.648L250.656 132.032L249.935 136.593H254.551V132.648ZM266.101 132.648V136.593H270.718L269.997 132.032L266.101 132.648ZM262.314 108.698L266.21 108.082L265.684 104.754H262.314V108.698ZM258.338 108.698V104.754H254.968L254.442 108.082L258.338 108.698ZM234.577 160.764H238.522V158.397H234.577H230.633V160.764H234.577ZM234.577 158.397L238.441 159.192L251.599 95.2941L247.736 94.4985L243.872 93.7029L230.714 157.601L234.577 158.397ZM247.736 94.4985L247.721 98.4428L272.902 98.5375L272.916 94.5932L272.931 90.6488L247.751 90.5542L247.736 94.4985ZM272.916 94.5932L269.053 95.3898L282.212 159.194L286.075 158.397L289.938 157.6L276.779 93.7965L272.916 94.5932ZM286.075 158.397H282.13V160.764H286.075H290.019V158.397H286.075ZM286.075 160.764V156.819H270.455V160.764V164.708H286.075V160.764ZM270.455 160.764L274.352 160.151L271.985 145.099L268.089 145.712L264.192 146.325L266.559 161.376L270.455 160.764ZM268.089 145.712V141.768H252.564V145.712V149.656H268.089V145.712ZM252.564 145.712L248.667 145.099L246.3 160.151L250.197 160.764L254.093 161.376L256.46 146.325L252.564 145.712ZM250.197 160.764V156.819H234.577V160.764V164.708H250.197V160.764ZM254.551 132.648V136.593H266.101V132.648V128.704H254.551V132.648ZM266.101 132.648L269.997 132.032L266.21 108.082L262.314 108.698L258.418 109.314L262.205 133.264L266.101 132.648ZM262.314 108.698V104.754H258.338V108.698V112.643H262.314V108.698ZM258.338 108.698L254.442 108.082L250.656 132.032L254.551 132.648L258.447 133.264L262.234 109.314L258.338 108.698ZM300.436 94.4985V90.5542H296.503L296.492 94.4872L300.436 94.4985ZM315.393 94.4985H319.338V90.5542H315.393V94.4985ZM315.393 160.764V164.708H319.338V160.764H315.393ZM300.247 160.764L296.303 160.752L296.291 164.708H300.247V160.764ZM335.178 96.7704L333.384 100.283L333.414 100.299L333.444 100.313L335.178 96.7704ZM342.183 103.492L338.746 105.425L338.754 105.441L338.763 105.456L342.183 103.492ZM341.899 126.4L338.535 124.341V124.341L341.899 126.4ZM334.516 133.406L336.309 136.918L336.323 136.911L336.338 136.904L334.516 133.406ZM307.725 135.677H303.781V139.622H307.725V135.677ZM307.725 94.4985V90.5542H303.781V94.4985H307.725ZM315.393 122.898H311.449V126.842H315.393V122.898ZM326.374 121.951L324.186 118.669L324.134 118.705L324.082 118.742L326.374 121.951ZM328.457 119.301L324.822 117.77L324.801 117.82L324.781 117.871L328.457 119.301ZM328.457 111.538L324.81 113.04L324.847 113.13L324.888 113.218L328.457 111.538ZM326.374 109.077L324.082 112.286L324.21 112.378L324.345 112.459L326.374 109.077ZM315.393 108.13V104.186H311.449V108.13H315.393ZM318.517 127.631V123.687H313.114L314.761 128.833L318.517 127.631ZM332.906 127.631L336.588 126.215L335.615 123.687H332.906V127.631ZM344.739 158.397H348.684V157.665L348.421 156.981L344.739 158.397ZM344.739 160.764V164.708H348.684V160.764H344.739ZM329.12 160.764L325.363 161.966L326.24 164.708H329.12V160.764ZM300.436 94.4985V98.4428H315.393V94.4985V90.5542H300.436V94.4985ZM315.393 94.4985H311.449V160.764H315.393H319.338V94.4985H315.393ZM315.393 160.764V156.819H300.247V160.764V164.708H315.393V160.764ZM300.247 160.764L304.191 160.775L304.381 94.5098L300.436 94.4985L296.492 94.4872L296.303 160.752L300.247 160.764ZM325.049 94.4985V98.4428C328.298 98.4428 331.046 99.089 333.384 100.283L335.178 96.7704L336.972 93.2576C333.379 91.4226 329.373 90.5542 325.049 90.5542V94.4985ZM335.178 96.7704L333.444 100.313C335.654 101.394 337.412 103.054 338.746 105.425L342.183 103.492L345.621 101.558C343.547 97.8706 340.635 95.0494 336.912 93.2276L335.178 96.7704ZM342.183 103.492L338.763 105.456C340.029 107.66 340.795 110.683 340.795 114.757H344.739H348.684C348.684 109.742 347.746 105.256 345.604 101.527L342.183 103.492ZM344.739 114.757H340.795C340.795 118.906 339.954 122.023 338.535 124.341L341.899 126.4L345.263 128.46C347.631 124.593 348.684 119.948 348.684 114.757H344.739ZM341.899 126.4L338.535 124.341C336.992 126.862 335.048 128.681 332.693 129.907L334.516 133.406L336.338 136.904C340.041 134.975 343.02 132.124 345.263 128.46L341.899 126.4ZM334.516 133.406L332.722 129.893C330.313 131.122 327.773 131.733 325.049 131.733V135.677V139.622C329.015 139.622 332.785 138.718 336.309 136.918L334.516 133.406ZM325.049 135.677V131.733H307.725V135.677V139.622H325.049V135.677ZM307.725 135.677H311.67V94.4985H307.725H303.781V135.677H307.725ZM307.725 94.4985V98.4428H325.049V94.4985V90.5542H307.725V94.4985ZM315.393 122.898V126.842H323.061V122.898V118.953H315.393V122.898ZM323.061 122.898V126.842C325.024 126.842 326.979 126.367 328.667 125.161L326.374 121.951L324.082 118.742C324.003 118.798 323.749 118.953 323.061 118.953V122.898ZM326.374 121.951L328.562 125.233C330.233 124.119 331.42 122.565 332.133 120.73L328.457 119.301L324.781 117.871C324.611 118.308 324.409 118.521 324.186 118.669L326.374 121.951ZM328.457 119.301L332.092 120.831C332.823 119.095 333.159 117.241 333.159 115.325H329.214H325.27C325.27 116.311 325.1 117.108 324.822 117.77L328.457 119.301ZM329.214 115.325H333.159C333.159 113.42 332.827 111.561 332.026 109.859L328.457 111.538L324.888 113.218C325.097 113.661 325.27 114.326 325.27 115.325H329.214ZM328.457 111.538L332.104 110.036C331.357 108.222 330.117 106.722 328.404 105.695L326.374 109.077L324.345 112.459C324.526 112.567 324.673 112.709 324.81 113.04L328.457 111.538ZM326.374 109.077L328.667 105.867C326.979 104.661 325.024 104.186 323.061 104.186V108.13V112.075C323.749 112.075 324.003 112.23 324.082 112.286L326.374 109.077ZM323.061 108.13V104.186H315.393V108.13V112.075H323.061V108.13ZM315.393 108.13H311.449V122.898H315.393H319.338V108.13H315.393ZM318.517 127.631V131.575H332.906V127.631V123.687H318.517V127.631ZM332.906 127.631L329.225 129.047L341.058 159.813L344.739 158.397L348.421 156.981L336.588 126.215L332.906 127.631ZM344.739 158.397H340.795V160.764H344.739H348.684V158.397H344.739ZM344.739 160.764V156.819H329.12V160.764V164.708H344.739V160.764ZM329.12 160.764L332.876 159.561L322.274 126.429L318.517 127.631L314.761 128.833L325.363 161.966L329.12 160.764ZM395.882 94.4985H399.826V90.5542H395.882V94.4985ZM395.882 108.319V112.264H399.826V108.319H395.882ZM383.954 108.319V104.375H380.01V108.319H383.954ZM383.954 160.764V164.708H387.898V160.764H383.954ZM368.997 160.764H365.053V164.708H368.997V160.764ZM368.997 108.319H372.941V104.375H368.997V108.319ZM356.691 108.319H352.746V112.264H356.691V108.319ZM356.691 94.4985V90.5542H352.746V94.4985H356.691ZM395.882 94.4985H391.937V108.319H395.882H399.826V94.4985H395.882ZM395.882 108.319V104.375H383.954V108.319V112.264H395.882V108.319ZM383.954 108.319H380.01V160.764H383.954H387.898V108.319H383.954ZM383.954 160.764V156.819H368.997V160.764V164.708H383.954V160.764ZM368.997 160.764H372.941V108.319H368.997H365.053V160.764H368.997ZM368.997 108.319V104.375H356.691V108.319V112.264H368.997V108.319ZM356.691 108.319H360.635V94.4985H356.691H352.746V108.319H356.691ZM356.691 94.4985V98.4428H395.882V94.4985V90.5542H356.691V94.4985Z" fill="#373737" mask="url(#path-3-outside-2_37_95)"/>
</g>
<defs>
<filter id="filter0_d_37_95" x="3.95947" y="0" width="525" height="220.063" filterUnits="userSpaceOnUse" color-interpolation-filters="sRGB">
<feFlood flood-opacity="0" result="BackgroundImageFix"/>
<feColorMatrix in="SourceAlpha" type="matrix" values="0 0 0 0 0 0 0 0 0 0 0 0 0 0 0 0 0 0 127 0" result="hardAlpha"/>
<feOffset dy="16"/>
<feGaussianBlur stdDeviation="3"/>
<feComposite in2="hardAlpha" operator="out"/>
<feColorMatrix type="matrix" values="0 0 0 0 0 0 0 0 0 0 0 0 0 0 0 0 0 0 0.25 0"/>
<feBlend mode="normal" in2="BackgroundImageFix" result="effect1_dropShadow_37_95"/>
<feBlend mode="normal" in="SourceGraphic" in2="effect1_dropShadow_37_95" result="shape"/>
</filter>
<filter id="filter1_d_37_95" x="-7.62939e-06" y="0" width="532.919" height="222.813" filterUnits="userSpaceOnUse" color-interpolation-filters="sRGB">
<feFlood flood-opacity="0" result="BackgroundImageFix"/>
<feColorMatrix in="SourceAlpha" type="matrix" values="0 0 0 0 0 0 0 0 0 0 0 0 0 0 0 0 0 0 127 0" result="hardAlpha"/>
<feOffset dy="14.7913"/>
<feGaussianBlur stdDeviation="4.97974"/>
<feComposite in2="hardAlpha" operator="out"/>
<feColorMatrix type="matrix" values="0 0 0 0 0 0 0 0 0 0 0 0 0 0 0 0 0 0 0.25 0"/>
<feBlend mode="normal" in2="BackgroundImageFix" result="effect1_dropShadow_37_95"/>
<feBlend mode="normal" in="SourceGraphic" in2="effect1_dropShadow_37_95" result="shape"/>
</filter>
<filter id="filter2_i_37_95" x="134.079" y="82.6102" width="272.65" height="83.2336" filterUnits="userSpaceOnUse" color-interpolation-filters="sRGB">
<feFlood flood-opacity="0" result="BackgroundImageFix"/>
<feBlend mode="normal" in="SourceGraphic" in2="BackgroundImageFix" result="shape"/>
<feColorMatrix in="SourceAlpha" type="matrix" values="0 0 0 0 0 0 0 0 0 0 0 0 0 0 0 0 0 0 127 0" result="hardAlpha"/>
<feOffset dx="9.86087" dy="-7.8887"/>
<feGaussianBlur stdDeviation="3.4513"/>
<feComposite in2="hardAlpha" operator="arithmetic" k2="-1" k3="1"/>
<feColorMatrix type="matrix" values="0 0 0 0 0 0 0 0 0 0 0 0 0 0 0 0 0 0 0.15 0"/>
<feBlend mode="normal" in2="shape" result="effect1_innerShadow_37_95"/>
</filter>
</defs>
</svg>
