<svg width="277" height="213" viewBox="0 0 277 213" fill="none" xmlns="http://www.w3.org/2000/svg">
<g filter="url(#filter0_d_44_9)">
<mask id="path-1-inside-1_44_9" fill="white">
<path d="M96.3955 0C104.68 3.50475e-05 111.396 6.71575 111.396 15V46H165.604V15C165.604 6.71575 172.32 4.17504e-05 180.604 0H217.088C225.372 0.000230896 232.088 6.71587 232.088 15V46H273V201H4V46H44.9121V15C44.9121 6.71588 51.628 0.00023761 59.9121 0H96.3955Z"/>
</mask>
<path d="M96.3955 0C104.68 3.50475e-05 111.396 6.71575 111.396 15V46H165.604V15C165.604 6.71575 172.32 4.17504e-05 180.604 0H217.088C225.372 0.000230896 232.088 6.71587 232.088 15V46H273V201H4V46H44.9121V15C44.9121 6.71588 51.628 0.00023761 59.9121 0H96.3955Z" fill="#F3F3F3"/>
<path d="M96.3955 0L96.3955 -5H96.3955V0ZM111.396 46H106.396V51H111.396V46ZM165.604 46V51H170.604V46H165.604ZM180.604 0V-5H180.604L180.604 0ZM217.088 0L217.088 -5H217.088V0ZM232.088 46H227.088V51H232.088V46ZM273 46H278V41H273V46ZM273 201V206H278V201H273ZM4 201H-1V206H4V201ZM4 46V41H-1V46H4ZM44.9121 46V51H49.9121V46H44.9121ZM59.9121 0V-5H59.912L59.9121 0ZM96.3955 0L96.3955 5C101.918 5.00002 106.396 9.4772 106.396 15H111.396H116.396C116.396 3.95431 107.441 -4.99995 96.3955 -5L96.3955 0ZM111.396 15H106.396V46H111.396H116.396V15H111.396ZM111.396 46V51H165.604V46V41H111.396V46ZM165.604 46H170.604V15H165.604H160.604V46H165.604ZM165.604 15H170.604C170.604 9.4772 175.082 5.00003 180.605 5L180.604 0L180.604 -5C169.559 -4.99994 160.604 3.95431 160.604 15H165.604ZM180.604 0V5H217.088V0V-5H180.604V0ZM217.088 0L217.088 5C222.611 5.00015 227.088 9.47743 227.088 15H232.088H237.088C237.088 3.95431 228.133 -4.99969 217.088 -5L217.088 0ZM232.088 15H227.088V46H232.088H237.088V15H232.088ZM232.088 46V51H273V46V41H232.088V46ZM273 46H268V201H273H278V46H273ZM273 201V196H4V201V206H273V201ZM4 201H9V46H4H-1V201H4ZM4 46V51H44.9121V46V41H4V46ZM44.9121 46H49.9121V15H44.9121H39.9121V46H44.9121ZM44.9121 15H49.9121C49.9121 9.47744 54.3894 5.00016 59.9123 5L59.9121 0L59.912 -5C48.8667 -4.99968 39.9121 3.95431 39.9121 15H44.9121ZM59.9121 0V5H96.3955V0V-5H59.9121V0Z" fill="#939393" mask="url(#path-1-inside-1_44_9)"/>
</g>
<defs>
<filter id="filter0_d_44_9" x="0" y="0" width="277" height="213" filterUnits="userSpaceOnUse" color-interpolation-filters="sRGB">
<feFlood flood-opacity="0" result="BackgroundImageFix"/>
<feColorMatrix in="SourceAlpha" type="matrix" values="0 0 0 0 0 0 0 0 0 0 0 0 0 0 0 0 0 0 127 0" result="hardAlpha"/>
<feOffset dy="8"/>
<feGaussianBlur stdDeviation="2"/>
<feComposite in2="hardAlpha" operator="out"/>
<feColorMatrix type="matrix" values="0 0 0 0 0 0 0 0 0 0 0 0 0 0 0 0 0 0 0.25 0"/>
<feBlend mode="normal" in2="BackgroundImageFix" result="effect1_dropShadow_44_9"/>
<feBlend mode="normal" in="SourceGraphic" in2="effect1_dropShadow_44_9" result="shape"/>
</filter>
</defs>
</svg>
